<svg width="25" height="25" viewBox="0 0 25 25" fill="none" xmlns="http://www.w3.org/2000/svg">
<rect width="24.1714" height="24.1714" fill="#61A8B7"/>
<path d="M12.0838 8.0572V12.0858L15.1052 15.1072M21.1481 12.0858C21.1481 13.2761 20.9136 14.4548 20.4581 15.5545C20.0026 16.6543 19.3349 17.6535 18.4932 18.4952C17.6515 19.3369 16.6523 20.0046 15.5526 20.4601C14.4528 20.9156 13.2742 21.1501 12.0838 21.1501C10.8935 21.1501 9.71479 20.9156 8.61506 20.4601C7.51533 20.0046 6.5161 19.3369 5.6744 18.4952C4.8327 17.6535 4.16503 16.6543 3.70951 15.5545C3.25399 14.4548 3.01953 13.2761 3.01953 12.0858C3.01953 9.68177 3.97452 7.37624 5.6744 5.67635C7.37428 3.97647 9.67982 3.02148 12.0838 3.02148C14.4878 3.02148 16.7933 3.97647 18.4932 5.67635C20.1931 7.37624 21.1481 9.68177 21.1481 12.0858Z" stroke="white" stroke-width="2.68571" stroke-linecap="round" stroke-linejoin="round"/>
</svg>
