<svg width="302" height="291" viewBox="0 0 302 291" fill="none" xmlns="http://www.w3.org/2000/svg">
<path d="M91.9604 83.2195L102.259 94.4389L72.3402 121.901C68.3728 125.543 66.0145 130.611 65.7841 135.992C65.5538 141.372 67.4703 146.624 71.112 150.591L98.5739 180.509L87.3545 190.808C82.3952 195.36 79.4473 201.696 79.1594 208.421C78.8715 215.147 81.2671 221.711 85.8192 226.67C90.3713 231.63 96.707 234.578 103.433 234.865C110.158 235.153 116.723 232.758 121.682 228.206L132.901 217.908L160.363 247.826C164.005 251.793 169.073 254.152 174.454 254.382C179.834 254.612 185.086 252.696 189.053 249.054L217.476 222.965L207.178 211.746C196.879 200.527 197.616 183.312 208.836 173.014C220.055 162.716 237.269 163.453 247.568 174.672L257.866 185.892L286.288 159.803C290.256 156.161 292.614 151.093 292.844 145.712C293.075 140.332 291.158 135.08 287.517 131.113L261.428 102.69L250.208 112.988C238.989 123.287 221.775 122.55 211.477 111.33C201.178 100.111 201.915 82.8968 213.135 72.5986L224.354 62.3003L198.265 33.8778C194.624 29.9104 189.555 27.5521 184.175 27.3218C178.794 27.0915 173.543 29.0079 169.575 32.6496L139.657 60.1115L129.358 48.8921C124.806 43.9328 118.471 40.985 111.745 40.6971C105.019 40.4091 98.455 42.8047 93.4957 47.3568C88.5364 51.9089 85.5886 58.2446 85.3006 64.9702C85.0127 71.6958 87.4083 78.2602 91.9604 83.2195Z" fill="#FFF5DA"/>
<path d="M87.1758 154.653V129.199H105.521V134.767H94.0863V139.142H104.576V144.71H94.0863V149.085H105.471V154.653H87.1758ZM117.358 154.902C115.999 154.902 114.748 154.546 113.605 153.833C112.469 153.12 111.558 152.039 110.87 150.589C110.191 149.139 109.851 147.312 109.851 145.108C109.851 142.804 110.207 140.932 110.92 139.49C111.641 138.048 112.569 136.992 113.704 136.321C114.848 135.649 116.049 135.314 117.308 135.314C118.253 135.314 119.082 135.48 119.794 135.811C120.507 136.134 121.103 136.569 121.584 137.116C122.065 137.655 122.429 138.247 122.678 138.893H122.777V129.199H129.638V154.653H122.827V151.521H122.678C122.413 152.168 122.031 152.748 121.534 153.261C121.045 153.767 120.449 154.169 119.745 154.467C119.049 154.757 118.253 154.902 117.358 154.902ZM119.894 149.632C120.523 149.632 121.062 149.45 121.509 149.085C121.965 148.712 122.313 148.19 122.553 147.519C122.802 146.84 122.926 146.036 122.926 145.108C122.926 144.163 122.802 143.355 122.553 142.684C122.313 142.005 121.965 141.487 121.509 141.131C121.062 140.766 120.523 140.584 119.894 140.584C119.264 140.584 118.725 140.766 118.278 141.131C117.839 141.487 117.499 142.005 117.259 142.684C117.027 143.355 116.911 144.163 116.911 145.108C116.911 146.052 117.027 146.864 117.259 147.544C117.499 148.215 117.839 148.733 118.278 149.098C118.725 149.454 119.264 149.632 119.894 149.632ZM146.786 146.301V135.562H153.646V154.653H147.134V151.024H146.935C146.52 152.242 145.795 153.195 144.76 153.883C143.724 154.562 142.493 154.902 141.068 154.902C139.734 154.902 138.566 154.595 137.563 153.982C136.569 153.369 135.794 152.524 135.239 151.447C134.692 150.369 134.415 149.135 134.406 147.743V135.562H141.267V146.301C141.275 147.246 141.516 147.987 141.988 148.526C142.469 149.064 143.14 149.334 144.001 149.334C144.573 149.334 145.066 149.214 145.48 148.973C145.903 148.725 146.226 148.377 146.45 147.929C146.682 147.474 146.794 146.931 146.786 146.301ZM167.733 155.001C165.662 155.001 163.888 154.591 162.414 153.771C160.939 152.942 159.808 151.791 159.02 150.316C158.233 148.832 157.84 147.113 157.84 145.158C157.84 143.202 158.233 141.487 159.02 140.012C159.808 138.529 160.939 137.377 162.414 136.557C163.888 135.728 165.662 135.314 167.733 135.314C169.606 135.314 171.226 135.654 172.593 136.333C173.968 137.004 175.033 137.957 175.787 139.192C176.541 140.418 176.922 141.86 176.931 143.517H170.567C170.476 142.514 170.186 141.752 169.697 141.23C169.216 140.7 168.595 140.435 167.833 140.435C167.236 140.435 166.714 140.609 166.267 140.957C165.819 141.296 165.471 141.814 165.223 142.51C164.974 143.198 164.85 144.064 164.85 145.108C164.85 146.152 164.974 147.022 165.223 147.718C165.471 148.406 165.819 148.924 166.267 149.272C166.714 149.611 167.236 149.781 167.833 149.781C168.338 149.781 168.786 149.665 169.175 149.433C169.564 149.193 169.879 148.845 170.12 148.389C170.368 147.925 170.517 147.362 170.567 146.699H176.931C176.906 148.381 176.52 149.847 175.775 151.099C175.029 152.342 173.973 153.303 172.605 153.982C171.246 154.662 169.622 155.001 167.733 155.001ZM186.481 154.952C185.263 154.952 184.186 154.753 183.249 154.355C182.321 153.949 181.592 153.336 181.062 152.516C180.532 151.695 180.266 150.651 180.266 149.383C180.266 148.339 180.445 147.449 180.801 146.711C181.157 145.965 181.654 145.356 182.292 144.884C182.93 144.412 183.672 144.051 184.517 143.803C185.371 143.554 186.29 143.393 187.276 143.318C188.345 143.235 189.203 143.136 189.849 143.02C190.504 142.896 190.976 142.726 191.266 142.51C191.556 142.286 191.701 141.992 191.701 141.628V141.578C191.701 141.081 191.511 140.7 191.129 140.435C190.748 140.169 190.259 140.037 189.663 140.037C189.008 140.037 188.474 140.182 188.059 140.472C187.653 140.754 187.409 141.189 187.326 141.777H181.012C181.095 140.617 181.464 139.548 182.118 138.57C182.781 137.584 183.747 136.797 185.014 136.209C186.282 135.612 187.865 135.314 189.762 135.314C191.129 135.314 192.356 135.475 193.441 135.799C194.527 136.113 195.451 136.557 196.213 137.128C196.975 137.692 197.555 138.355 197.953 139.117C198.359 139.871 198.562 140.691 198.562 141.578V154.653H192.149V151.969H191.999C191.618 152.681 191.154 153.257 190.607 153.696C190.069 154.135 189.451 154.454 188.755 154.653C188.068 154.852 187.31 154.952 186.481 154.952ZM188.718 150.626C189.24 150.626 189.729 150.519 190.185 150.303C190.649 150.088 191.026 149.777 191.316 149.371C191.606 148.965 191.751 148.472 191.751 147.892V146.301C191.569 146.376 191.374 146.446 191.167 146.512C190.968 146.579 190.752 146.641 190.52 146.699C190.297 146.757 190.056 146.811 189.799 146.86C189.551 146.91 189.29 146.956 189.016 146.997C188.486 147.08 188.051 147.217 187.711 147.407C187.38 147.59 187.131 147.817 186.966 148.091C186.808 148.356 186.73 148.654 186.73 148.986C186.73 149.516 186.916 149.922 187.289 150.204C187.662 150.485 188.138 150.626 188.718 150.626ZM214.625 135.562V140.534H202.047V135.562H214.625ZM204.483 130.989H211.344V148.513C211.344 148.779 211.389 149.002 211.48 149.185C211.572 149.359 211.712 149.491 211.903 149.582C212.094 149.665 212.338 149.707 212.636 149.707C212.844 149.707 213.084 149.682 213.357 149.632C213.639 149.582 213.846 149.541 213.979 149.508L214.973 154.33C214.666 154.421 214.227 154.533 213.656 154.666C213.092 154.798 212.421 154.885 211.642 154.927C210.068 155.01 208.746 154.848 207.677 154.442C206.608 154.028 205.805 153.377 205.266 152.491C204.727 151.604 204.466 150.494 204.483 149.16V130.989ZM218.825 154.653V135.562H225.685V154.653H218.825ZM222.255 133.574C221.327 133.574 220.532 133.267 219.869 132.654C219.206 132.041 218.874 131.303 218.874 130.442C218.874 129.58 219.206 128.842 219.869 128.229C220.532 127.616 221.327 127.31 222.255 127.31C223.191 127.31 223.987 127.616 224.641 128.229C225.304 128.842 225.636 129.58 225.636 130.442C225.636 131.303 225.304 132.041 224.641 132.654C223.987 133.267 223.191 133.574 222.255 133.574ZM239.779 155.001C237.707 155.001 235.934 154.591 234.459 153.771C232.984 152.942 231.853 151.791 231.066 150.316C230.279 148.832 229.885 147.113 229.885 145.158C229.885 143.202 230.279 141.487 231.066 140.012C231.853 138.529 232.984 137.377 234.459 136.557C235.934 135.728 237.707 135.314 239.779 135.314C241.85 135.314 243.623 135.728 245.098 136.557C246.573 137.377 247.704 138.529 248.491 140.012C249.278 141.487 249.672 143.202 249.672 145.158C249.672 147.113 249.278 148.832 248.491 150.316C247.704 151.791 246.573 152.942 245.098 153.771C243.623 154.591 241.85 155.001 239.779 155.001ZM239.828 149.93C240.408 149.93 240.91 149.736 241.332 149.346C241.755 148.957 242.082 148.402 242.314 147.681C242.546 146.96 242.662 146.102 242.662 145.108C242.662 144.105 242.546 143.248 242.314 142.535C242.082 141.814 241.755 141.259 241.332 140.87C240.91 140.48 240.408 140.285 239.828 140.285C239.215 140.285 238.689 140.48 238.25 140.87C237.811 141.259 237.475 141.814 237.243 142.535C237.011 143.248 236.895 144.105 236.895 145.108C236.895 146.102 237.011 146.96 237.243 147.681C237.475 148.402 237.811 148.957 238.25 149.346C238.689 149.736 239.215 149.93 239.828 149.93ZM260.717 143.915V154.653H253.856V135.562H260.369V139.192H260.568C260.982 137.982 261.711 137.033 262.755 136.345C263.808 135.658 265.034 135.314 266.434 135.314C267.785 135.314 268.957 135.625 269.952 136.246C270.954 136.859 271.729 137.704 272.276 138.782C272.831 139.859 273.104 141.089 273.096 142.473V154.653H266.235V143.915C266.244 142.97 266.003 142.228 265.514 141.69C265.034 141.151 264.363 140.882 263.501 140.882C262.937 140.882 262.444 141.006 262.022 141.255C261.608 141.495 261.289 141.843 261.065 142.299C260.841 142.746 260.725 143.285 260.717 143.915Z" fill="#543F3F"/>
</svg>
