<svg width="425" height="375" viewBox="0 0 425 375" fill="none" xmlns="http://www.w3.org/2000/svg">
<path d="M293.608 108.602C298.579 105.323 302.043 100.204 303.239 94.3706C304.434 88.5374 303.264 82.4681 299.985 77.4978C296.706 72.5275 291.587 69.0635 285.754 67.8676C279.92 66.6717 273.851 67.8421 268.881 71.1212L262.634 75.2424C259.32 77.4285 255.274 78.2087 251.385 77.4115C247.497 76.6142 244.084 74.3048 241.898 70.9913L217.17 33.5104C214.984 30.1968 211.571 27.8874 207.682 27.0902C203.794 26.293 199.747 27.0732 196.434 29.2592L158.953 53.9868C155.639 56.1729 153.33 59.5857 152.533 63.4745C151.736 67.3633 152.516 71.4095 154.702 74.723L158.823 80.9698C162.102 85.9401 163.273 92.0095 162.077 97.8426C160.881 103.676 157.417 108.795 152.446 112.074C147.476 115.353 141.407 116.524 135.574 115.328C129.741 114.132 124.621 110.668 121.342 105.697L117.221 99.4506C115.035 96.1371 111.622 93.8277 107.733 93.0304C103.844 92.2332 99.7983 93.0134 96.4848 95.1995L59.0038 119.927C55.6903 122.113 53.3809 125.526 52.5836 129.415C51.7864 133.304 52.5666 137.35 54.7527 140.663L79.4803 178.144C81.6663 181.458 85.0792 183.767 88.9679 184.564C92.8567 185.362 96.903 184.581 100.216 182.395L106.463 178.274C111.434 174.995 117.503 173.825 123.336 175.02C129.169 176.216 134.288 179.68 137.568 184.651C140.847 189.621 142.017 195.69 140.821 201.524C139.625 207.357 136.161 212.476 131.191 215.755L124.944 219.876C121.631 222.062 119.321 225.475 118.524 229.364C117.727 233.253 118.507 237.299 120.693 240.612L145.421 278.093C147.607 281.407 151.019 283.716 154.908 284.514C158.797 285.311 162.843 284.531 166.157 282.345L203.638 257.617C206.951 255.431 210.997 254.651 214.886 255.448C218.775 256.245 222.188 258.555 224.374 261.868L228.495 268.115C231.774 273.085 236.893 276.549 242.727 277.745C248.56 278.941 254.629 277.771 259.599 274.492C264.57 271.212 268.034 266.093 269.23 260.26C270.425 254.427 269.255 248.358 265.976 243.387L261.855 237.14C259.669 233.827 258.889 229.781 259.686 225.892C260.483 222.003 262.792 218.59 266.106 216.404L303.587 191.677C306.9 189.491 309.21 186.078 310.007 182.189C310.804 178.3 310.024 174.254 307.838 170.94L283.11 133.46C280.924 130.146 280.144 126.1 280.941 122.211C281.739 118.322 284.048 114.909 287.362 112.723L293.608 108.602Z" fill="#F3C26F"/>
<path d="M85.8017 142.522L90.4404 121.202L105.805 124.545L104.791 129.209L95.2136 127.125L94.4163 130.79L103.202 132.701L102.187 137.365L93.4016 135.453L92.6043 139.117L102.14 141.192L101.125 145.856L85.8017 142.522ZM112.996 139.019L111.039 148.013L105.293 146.763L108.772 130.773L114.227 131.96L113.565 135L113.732 135.036C114.299 134.098 115.083 133.436 116.083 133.051C117.089 132.666 118.179 132.602 119.352 132.857C120.483 133.103 121.409 133.577 122.128 134.279C122.856 134.975 123.351 135.824 123.613 136.826C123.881 137.829 123.886 138.91 123.627 140.067L121.407 150.269L115.661 149.019L117.618 140.024C117.797 139.235 117.731 138.57 117.42 138.03C117.115 137.491 116.602 137.143 115.881 136.986C115.409 136.883 114.973 136.898 114.574 137.029C114.183 137.155 113.853 137.388 113.582 137.729C113.313 138.063 113.118 138.493 112.996 139.019ZM144.438 138.533L135.587 153.354L128.925 151.904L127.032 134.746L133.07 136.06L133.35 147.198L133.517 147.234L138.4 137.22L144.438 138.533ZM143.765 155.134L147.245 139.144L152.991 140.394L149.512 156.384L143.765 155.134ZM150.48 138.104C149.703 137.934 149.092 137.533 148.649 136.898C148.205 136.264 148.062 135.586 148.219 134.864C148.376 134.142 148.788 133.585 149.455 133.192C150.122 132.8 150.844 132.688 151.622 132.857C152.406 133.028 153.016 133.429 153.453 134.062C153.896 134.697 154.039 135.375 153.882 136.096C153.725 136.818 153.313 137.375 152.646 137.768C151.986 138.162 151.264 138.274 150.48 138.104ZM153.612 157.276L157.091 141.286L162.671 142.5L162.009 145.54L162.176 145.576C162.712 144.516 163.352 143.794 164.097 143.411C164.849 143.029 165.652 142.931 166.505 143.117C166.755 143.171 166.997 143.246 167.231 143.34C167.473 143.429 167.701 143.533 167.915 143.652L166.848 148.556C166.585 148.396 166.25 148.247 165.844 148.108C165.439 147.969 165.086 147.867 164.788 147.802C164.226 147.68 163.691 147.698 163.184 147.856C162.686 148.01 162.258 148.287 161.902 148.689C161.547 149.085 161.303 149.588 161.17 150.198L159.358 158.526L153.612 157.276ZM174.219 162.065C172.484 161.687 171.073 161.021 169.988 160.065C168.903 159.102 168.166 157.931 167.775 156.553C167.386 155.167 167.37 153.655 167.726 152.017C168.083 150.38 168.725 149.015 169.653 147.923C170.583 146.824 171.74 146.066 173.125 145.647C174.511 145.222 176.072 145.198 177.807 145.576C179.542 145.953 180.951 146.623 182.036 147.586C183.121 148.542 183.859 149.713 184.248 151.098C184.638 152.477 184.655 153.985 184.299 155.623C183.943 157.261 183.3 158.629 182.37 159.728C181.442 160.82 180.285 161.579 178.898 162.004C177.514 162.422 175.954 162.442 174.219 162.065ZM175.185 157.827C175.67 157.932 176.126 157.861 176.551 157.612C176.976 157.362 177.351 156.957 177.677 156.396C178.002 155.834 178.256 155.137 178.437 154.304C178.62 153.464 178.679 152.725 178.614 152.086C178.551 151.44 178.378 150.915 178.095 150.512C177.812 150.109 177.428 149.854 176.942 149.749C176.429 149.637 175.953 149.704 175.514 149.95C175.075 150.196 174.693 150.6 174.367 151.162C174.043 151.716 173.789 152.413 173.607 153.253C173.425 154.086 173.366 154.825 173.429 155.471C173.492 156.118 173.672 156.644 173.969 157.05C174.266 157.456 174.671 157.715 175.185 157.827ZM193.776 156.595L191.819 165.589L186.073 164.339L189.552 148.349L195.007 149.536L194.345 152.576L194.512 152.612C195.079 151.674 195.863 151.013 196.863 150.627C197.869 150.243 198.959 150.178 200.132 150.433C201.263 150.679 202.189 151.153 202.908 151.855C203.636 152.551 204.131 153.4 204.393 154.402C204.661 155.406 204.666 156.486 204.407 157.643L202.187 167.845L196.441 166.595L198.398 157.601C198.577 156.811 198.511 156.146 198.2 155.606C197.895 155.067 197.382 154.719 196.661 154.562C196.189 154.46 195.753 154.474 195.354 154.605C194.963 154.731 194.632 154.964 194.362 155.305C194.093 155.639 193.898 156.069 193.776 156.595ZM206.197 168.717L209.676 152.728L215.13 153.915L214.469 156.954L214.636 156.991C215.186 156.064 215.927 155.396 216.859 154.989C217.791 154.581 218.812 154.498 219.923 154.739C221.047 154.984 221.95 155.493 222.632 156.267C223.316 157.033 223.634 157.924 223.588 158.939L223.755 158.975C224.238 158.055 224.985 157.396 225.994 156.998C227.006 156.593 228.105 156.52 229.291 156.778C230.825 157.112 231.96 157.875 232.696 159.067C233.44 160.261 233.633 161.677 233.277 163.314L230.93 174.099L225.184 172.849L227.214 163.522C227.366 162.821 227.308 162.234 227.041 161.761C226.774 161.282 226.343 160.977 225.746 160.847C225.156 160.719 224.644 160.818 224.209 161.145C223.783 161.467 223.494 161.978 223.341 162.679L221.312 172.006L215.815 170.81L217.845 161.483C217.997 160.782 217.94 160.195 217.672 159.723C217.405 159.243 216.974 158.939 216.377 158.809C215.981 158.723 215.622 158.739 215.298 158.857C214.974 158.976 214.695 159.188 214.462 159.493C214.237 159.793 214.073 160.176 213.972 160.64L211.943 169.968L206.197 168.717ZM242.535 176.929C240.828 176.558 239.428 175.912 238.334 174.99C237.249 174.064 236.508 172.914 236.109 171.541C235.718 170.162 235.71 168.612 236.085 166.891C236.444 165.239 237.091 163.868 238.026 162.778C238.961 161.687 240.111 160.931 241.475 160.508C242.839 160.085 244.346 160.054 245.998 160.413C247.206 160.676 248.258 161.101 249.155 161.689C250.052 162.276 250.77 163.003 251.308 163.869C251.848 164.728 252.195 165.704 252.349 166.799C252.504 167.894 252.443 169.076 252.166 170.346L251.876 171.679L237.594 168.571L238.283 165.407L247.277 167.364C247.37 166.904 247.339 166.476 247.186 166.079C247.041 165.677 246.798 165.337 246.459 165.06C246.128 164.777 245.723 164.583 245.244 164.479C244.779 164.378 244.33 164.386 243.898 164.502C243.467 164.612 243.096 164.815 242.785 165.111C242.48 165.408 242.27 165.787 242.155 166.249L241.412 169.664C241.301 170.177 241.308 170.659 241.436 171.108C241.564 171.557 241.804 171.94 242.156 172.257C242.509 172.573 242.97 172.794 243.539 172.918C243.935 173.004 244.307 173.027 244.658 172.987C245.015 172.948 245.334 172.85 245.616 172.693C245.898 172.53 246.128 172.311 246.304 172.036L251.55 173.178C251.128 174.249 250.492 175.121 249.64 175.793C248.79 176.459 247.761 176.896 246.553 177.106C245.353 177.31 244.013 177.251 242.535 176.929ZM261.647 171.363L259.69 180.357L253.944 179.106L257.423 163.117L262.878 164.304L262.217 167.343L262.383 167.38C262.951 166.442 263.734 165.78 264.734 165.395C265.741 165.01 266.83 164.946 268.003 165.201C269.135 165.447 270.06 165.921 270.779 166.623C271.507 167.319 272.002 168.168 272.264 169.17C272.533 170.173 272.537 171.254 272.278 172.411L270.059 182.613L264.312 181.362L266.269 172.368C266.448 171.579 266.382 170.914 266.071 170.374C265.767 169.835 265.254 169.487 264.532 169.33C264.06 169.227 263.624 169.242 263.225 169.373C262.834 169.499 262.504 169.732 262.233 170.073C261.964 170.407 261.769 170.837 261.647 171.363ZM287.082 169.57L286.176 173.734L275.642 171.442L276.548 167.278L287.082 169.57ZM279.421 163.891L285.168 165.141L281.974 179.819C281.926 180.041 281.923 180.237 281.966 180.406C282.011 180.569 282.105 180.705 282.248 180.817C282.392 180.921 282.589 181 282.839 181.054C283.013 181.092 283.219 181.115 283.457 181.123C283.702 181.133 283.883 181.136 284 181.132L283.954 185.353C283.68 185.373 283.292 185.387 282.789 185.394C282.293 185.402 281.715 185.352 281.055 185.245C279.721 185.028 278.644 184.652 277.823 184.117C277.003 183.575 276.448 182.884 276.159 182.043C275.869 181.202 275.853 180.225 276.11 179.11L279.421 163.891Z" fill="white"/>
</svg>
