<svg width="253" height="300" viewBox="0 0 253 300" fill="none" xmlns="http://www.w3.org/2000/svg">
<path d="M213.476 121.534L201.438 126.19L189.891 96.34C188.36 92.3816 185.201 89.2395 181.108 87.6047C177.015 85.97 172.325 85.9767 168.068 87.6233L135.967 100.04L131.637 88.8464C129.723 83.8983 125.774 79.9706 120.658 77.9272C115.542 75.8839 109.679 75.8922 104.358 77.9505C99.0371 80.0087 94.6943 83.9482 92.2852 88.9024C89.8761 93.8565 89.5979 99.4195 91.5119 104.368L95.8418 115.561L63.7413 127.978C59.4845 129.625 56.0103 132.777 54.083 136.74C52.1557 140.703 51.9332 145.154 53.4644 149.112L64.4336 177.47L76.4713 172.813C88.5089 168.157 101.603 173.387 105.933 184.581C110.263 195.775 104.097 208.455 92.0591 213.111L80.0214 217.768L90.9907 246.126C92.5218 250.084 95.6813 253.226 99.774 254.861C103.867 256.496 108.557 256.489 112.814 254.842L143.31 243.046L138.98 231.852C134.65 220.659 140.816 207.978 152.854 203.322C164.891 198.666 177.985 203.896 182.315 215.09L186.645 226.283L217.141 214.487C221.398 212.841 224.872 209.689 226.799 205.726C228.726 201.763 228.949 197.312 227.418 193.354L215.871 163.503L227.909 158.847C233.23 156.789 237.573 152.849 239.982 147.895C242.391 142.941 242.669 137.378 240.755 132.43C238.841 127.482 234.892 123.554 229.776 121.511C224.66 119.467 218.797 119.476 213.476 121.534Z" fill="#61A8B7"/>
<path d="M85.6992 146.42L94.5527 126.479L108.924 132.86L106.988 137.222L98.0297 133.244L96.508 136.672L104.726 140.32L102.789 144.683L94.5713 141.034L93.0496 144.461L101.969 148.421L100.032 152.783L85.6992 146.42ZM111.099 164.411L114.679 156.349L114.601 156.314C114.168 156.728 113.668 157.05 113.1 157.28C112.541 157.506 111.934 157.613 111.278 157.602C110.632 157.587 109.959 157.424 109.258 157.113C108.193 156.64 107.337 155.926 106.689 154.97C106.047 154.017 105.709 152.852 105.675 151.477C105.647 150.105 106.016 148.555 106.783 146.829C107.584 145.024 108.515 143.681 109.574 142.8C110.641 141.921 111.735 141.416 112.858 141.285C113.987 141.157 115.045 141.312 116.032 141.75C116.772 142.079 117.363 142.497 117.806 143.004C118.252 143.505 118.568 144.053 118.754 144.649C118.944 145.238 119.023 145.829 118.993 146.422L119.11 146.474L120.268 143.864L125.604 146.233L116.474 166.797L111.099 164.411ZM113.077 153.866C113.57 154.085 114.056 154.13 114.533 154C115.02 153.866 115.474 153.578 115.895 153.136C116.327 152.69 116.703 152.104 117.026 151.377C117.355 150.637 117.538 149.96 117.577 149.348C117.625 148.732 117.533 148.206 117.3 147.768C117.076 147.327 116.717 146.997 116.224 146.778C115.731 146.559 115.245 146.514 114.768 146.644C114.3 146.77 113.854 147.058 113.429 147.507C113.014 147.952 112.642 148.544 112.314 149.284C111.985 150.024 111.794 150.701 111.739 151.314C111.694 151.923 111.78 152.447 111.997 152.885C112.224 153.32 112.584 153.647 113.077 153.866ZM135.383 160.646L139.118 152.233L144.493 154.619L137.853 169.575L132.75 167.31L134.013 164.467L133.857 164.398C133.109 165.208 132.209 165.702 131.159 165.881C130.111 166.053 129.029 165.891 127.912 165.395C126.867 164.931 126.059 164.284 125.486 163.455C124.921 162.629 124.608 161.698 124.548 160.661C124.494 159.627 124.706 158.563 125.183 157.469L129.42 147.927L134.795 150.314L131.06 158.726C130.738 159.469 130.668 160.134 130.851 160.72C131.04 161.309 131.472 161.753 132.147 162.053C132.595 162.252 133.023 162.329 133.431 162.285C133.849 162.237 134.223 162.077 134.554 161.804C134.894 161.528 135.17 161.142 135.383 160.646ZM145.747 173.36C144.792 172.936 144.018 172.406 143.422 171.768C142.837 171.128 142.479 170.394 142.349 169.566C142.218 168.739 142.374 167.829 142.815 166.836C143.178 166.018 143.627 165.382 144.163 164.929C144.701 164.468 145.303 164.164 145.967 164.016C146.631 163.868 147.337 163.843 148.086 163.943C148.841 164.045 149.618 164.238 150.416 164.523C151.282 164.83 151.989 165.05 152.535 165.184C153.091 165.314 153.52 165.345 153.823 165.277C154.128 165.203 154.344 165.023 154.47 164.737L154.488 164.699C154.661 164.309 154.644 163.944 154.437 163.604C154.231 163.264 153.894 162.99 153.427 162.782C152.914 162.555 152.445 162.482 152.019 162.565C151.603 162.645 151.261 162.901 150.991 163.333L146.045 161.137C146.513 160.257 147.174 159.547 148.027 159.009C148.889 158.467 149.919 158.186 151.117 158.166C152.317 158.14 153.661 158.457 155.147 159.117C156.219 159.592 157.123 160.145 157.861 160.776C158.602 161.4 159.171 162.069 159.57 162.782C159.971 163.489 160.195 164.21 160.241 164.945C160.297 165.677 160.171 166.39 159.862 167.085L155.315 177.328L150.29 175.097L151.224 172.994L151.107 172.942C150.561 173.368 149.997 173.658 149.416 173.812C148.841 173.968 148.247 174.003 147.632 173.917C147.024 173.834 146.396 173.648 145.747 173.36ZM149.004 170.749C149.413 170.931 149.833 171.017 150.265 171.006C150.703 170.999 151.107 170.887 151.475 170.67C151.844 170.452 152.129 170.117 152.33 169.662L152.884 168.416C152.715 168.411 152.538 168.398 152.353 168.378C152.174 168.361 151.983 168.335 151.782 168.299C151.586 168.267 151.379 168.226 151.161 168.175C150.949 168.128 150.728 168.073 150.5 168.01C150.055 167.89 149.667 167.846 149.335 167.877C149.012 167.905 148.738 167.997 148.513 168.154C148.297 168.307 148.132 168.513 148.016 168.772C147.832 169.188 147.837 169.571 148.031 169.921C148.225 170.272 148.549 170.548 149.004 170.749ZM173.208 161.4L164.354 181.341L158.979 178.955L167.833 159.014L173.208 161.4ZM168.189 183.044L174.83 168.088L180.204 170.475L173.564 185.431L168.189 183.044ZM178.209 167.724C177.482 167.401 176.965 166.884 176.659 166.173C176.353 165.462 176.35 164.769 176.65 164.094C176.949 163.419 177.465 162.957 178.198 162.707C178.931 162.457 179.66 162.494 180.387 162.816C181.121 163.142 181.637 163.659 181.937 164.367C182.243 165.078 182.246 165.771 181.946 166.446C181.647 167.121 181.131 167.583 180.398 167.833C179.672 168.086 178.942 168.049 178.209 167.724ZM192.959 176.137L191.229 180.032L181.376 175.657L183.105 171.763L192.959 176.137ZM186.604 169.027L191.979 171.413L185.883 185.142C185.791 185.35 185.749 185.541 185.757 185.715C185.768 185.883 185.832 186.036 185.95 186.174C186.07 186.305 186.247 186.423 186.481 186.526C186.643 186.598 186.84 186.662 187.072 186.719C187.31 186.778 187.486 186.817 187.602 186.837L186.703 190.961C186.432 190.926 186.049 190.861 185.555 190.766C185.067 190.674 184.511 190.508 183.886 190.27C182.624 189.787 181.645 189.201 180.949 188.511C180.256 187.815 179.852 187.026 179.739 186.144C179.625 185.262 179.807 184.301 180.284 183.262L186.604 169.027ZM190.39 199.615C189.773 199.341 189.207 199.032 188.692 198.686C188.174 198.348 187.741 198.004 187.391 197.654L190.254 194.356C190.626 194.708 190.984 194.987 191.327 195.194C191.677 195.403 192.003 195.517 192.306 195.535C192.616 195.556 192.889 195.456 193.127 195.235L193.365 195.014L195.041 177.062L200.65 179.552L198.465 190.984L198.62 191.053L205.674 181.783L211.321 184.29L198.675 198.071C198.036 198.775 197.312 199.339 196.501 199.764C195.695 200.198 194.788 200.421 193.78 200.432C192.773 200.444 191.643 200.171 190.39 199.615Z" fill="white"/>
</svg>
