<svg width="1400" height="417" viewBox="0 0 1400 417" fill="none" xmlns="http://www.w3.org/2000/svg">
<g clip-path="url(#clip0_2185_366)">
<mask id="mask0_2185_366" style="mask-type:luminance" maskUnits="userSpaceOnUse" x="-162" y="0" width="1562" height="442">
<path d="M-162 0H1400V442H-162V0Z" fill="white"/>
</mask>
<g mask="url(#mask0_2185_366)">
<mask id="mask1_2185_366" style="mask-type:alpha" maskUnits="userSpaceOnUse" x="975" y="113" width="92" height="131">
<path d="M983.606 144.417L997.403 113.442H1036.56C1041.04 122.15 1050.14 139.864 1050.73 141.059C1051.33 142.253 1061.42 154.742 1066.39 160.837L1043.27 207.86C1030.84 219.677 1005.68 243.313 1004.48 243.313C1003.3 243.313 987.328 234.605 979.501 230.251L975.77 204.127C977.384 202.635 982.634 199.425 990.687 198.53C1000.75 197.41 1000.75 176.512 1000.75 170.167C1000.75 165.198 987.702 158.474 979.501 155.239L983.606 144.417Z" fill="#61A8B7"/>
</mask>
<g mask="url(#mask1_2185_366)">
<path d="M941.527 180.162V189.848L960.445 199.901C965.391 199.255 977.54 199.07 986.574 203.502C995.607 207.933 989.793 220.945 988.422 225.801L996.284 235.131L1009.4 239.599C1010.32 238.977 1013.46 236.764 1018.59 232.887C1025 228.042 1027.3 218.722 1025.61 213.432C1023.91 208.142 1018.36 211.874 1010.36 208.41C1002.36 204.946 1003.85 193.228 1010.99 186.282C1018.13 179.336 1027.24 183.914 1030.31 187.766C1032.11 190.036 1029.03 193.443 1033.63 197.853C1038.23 202.262 1056.08 189.248 1060.43 180.162C1064.78 171.077 1060 172.363 1055.48 172.452C1050.96 172.542 1046.3 168.583 1039.92 165.911C1033.53 163.238 1030.31 163.105 1030.31 154.895C1030.31 146.685 1036.73 148.347 1040.93 145.795C1045.12 143.242 1048.99 138.227 1044.87 129.748C1040.75 121.268 1036.1 120.372 1027.13 121.043C1018.16 121.714 1018.24 137.737 1016.03 140.031C1013.81 142.324 1009.77 143.7 1002.62 140.031C1000.57 138.98 992.275 128.938 988.422 125.1C986.4 126.365 981.358 129.629 977.314 132.563C972.264 136.23 966.38 149.023 973.132 150.646C979.892 152.268 988.005 157.945 990.687 163.105C993.377 168.266 993.212 169.566 987.554 176.318C981.896 183.07 971.613 181.407 966.502 173.057C962.406 166.376 957.798 165.509 956.011 165.911C952.001 166.033 942.491 174.693 941.527 180.162Z" fill="#61A8B7"/>
</g>
<path d="M1413.02 433.75H1206.49C1206.29 424.744 1191.67 355.119 1195.42 338.475C1199.37 321.831 1207.45 306.362 1214.56 291.089C1221.85 275.817 1228.36 260.739 1232.89 249.578C1237.43 238.418 1240 230.977 1239.8 225.69C1239.6 220.403 1236.64 217.27 1235.66 213.941C1234.47 210.809 1235.26 207.479 1234.08 203.172C1232.89 198.864 1230.13 193.381 1225.79 181.829C1221.65 170.276 1216.13 152.653 1211.4 141.297C1206.67 129.94 1202.92 124.849 1194.04 121.324C1185.36 117.799 1171.76 115.841 1164.46 115.254C1157.16 114.666 1156.17 115.254 1156.17 117.604C1156.17 119.954 1157.16 124.261 1157.95 128.765C1158.73 133.464 1159.33 138.555 1160.12 142.471C1160.71 146.388 1161.5 149.325 1162.68 150.891C1164.06 152.261 1165.84 152.261 1168.4 151.478C1170.77 150.695 1173.73 149.129 1176.29 146.583C1178.86 144.038 1181.22 140.513 1182.2 137.576C1183.39 134.639 1183.39 132.485 1181.42 132.681C1179.45 132.877 1175.7 135.422 1173.14 138.555C1170.77 141.688 1169.78 145.605 1170.97 150.5C1172.15 155.395 1175.31 161.073 1178.07 165.185C1180.83 169.297 1182.99 171.842 1185.56 172.234C1187.92 172.626 1190.49 170.667 1191.08 169.493C1191.47 168.318 1189.9 168.122 1187.33 169.101C1184.77 170.276 1181.22 172.822 1178.46 175.759C1175.7 178.892 1173.73 182.416 1172.54 184.57C1171.16 186.724 1170.57 187.703 1170.77 187.898C1170.97 188.095 1171.95 187.507 1171.56 185.55C1171.16 183.591 1169.59 180.458 1167.81 177.521C1166.03 174.584 1164.06 172.039 1162.88 169.101C1161.69 166.164 1161.5 163.031 1161.89 161.661C1162.29 160.29 1163.67 160.486 1164.06 162.052C1164.46 163.619 1164.26 166.556 1163.27 167.731C1162.29 169.101 1160.71 168.709 1159.72 168.906C1158.73 169.101 1158.34 169.689 1157.16 174.78C1155.78 179.87 1153.61 189.465 1152.82 195.927C1152.03 202.389 1152.62 205.521 1154 206.892C1155.38 208.263 1157.16 207.479 1157.75 205.913C1158.14 204.346 1157.35 201.801 1156.37 195.535C1155.58 189.27 1154.99 179.283 1155.18 169.493C1155.58 159.506 1156.76 149.521 1156.76 139.73C1156.76 129.744 1155.38 119.758 1152.42 113.688C1149.27 107.421 1144.53 104.876 1139.61 104.093C1134.68 103.31 1129.94 104.289 1127.18 107.421C1124.42 110.555 1123.83 116.037 1123.63 120.932C1123.43 125.827 1123.83 129.94 1126.59 132.094C1129.35 134.247 1134.48 134.639 1139.81 134.247C1145.12 133.856 1150.65 132.485 1152.22 128.569C1153.8 124.653 1151.63 118.387 1148.48 114.079C1145.32 109.968 1141.58 108.009 1137.24 108.009C1132.9 108.009 1127.97 109.968 1125.01 113.296C1121.85 116.624 1120.67 121.52 1120.08 123.869C1119.49 126.219 1119.49 126.219 1118.1 126.024C1116.72 125.827 1114.16 125.632 1112.58 124.261C1111 122.891 1110.41 120.737 1110.41 118.191C1110.41 115.646 1111 112.709 1111.79 110.163C1112.58 107.618 1113.57 105.268 1113.17 102.918C1112.78 100.568 1111.2 98.0231 1107.85 96.4566C1104.5 95.0863 1099.37 94.6946 1095.23 96.2612C1091.28 97.8269 1088.32 101.352 1087.73 105.073C1087.14 108.793 1088.72 112.513 1089.31 115.254C1089.9 117.996 1089.7 119.562 1087.73 120.737C1085.76 121.912 1082.21 122.499 1078.46 122.891C1074.71 123.282 1070.96 123.282 1068.01 123.087C1065.05 122.891 1063.08 122.695 1062.09 121.912C1060.91 121.324 1060.71 120.345 1060.91 118.387C1061.31 116.429 1062.29 113.492 1062.69 109.38C1063.08 105.268 1063.08 99.785 1062.69 96.6528C1062.29 93.5197 1061.31 92.9319 1059.14 92.9319C1056.97 92.9319 1053.81 93.5197 1051.24 94.4984C1048.68 95.4779 1046.71 96.6528 1044.14 96.6528C1041.58 96.4566 1038.42 94.89 1036.45 91.3653C1034.48 87.8415 1033.88 82.3584 1034.28 78.2465C1034.67 74.1345 1036.45 71.1974 1037.83 69.8267C1039.21 68.4561 1040.59 68.4561 1043.55 69.4352C1046.51 70.4142 1051.05 72.3723 1054.8 72.9596C1058.74 73.5471 1061.9 72.9596 1063.48 70.8058C1065.05 68.6519 1065.05 64.7357 1064.86 60.428C1064.66 56.1202 1064.46 51.225 1064.07 48.0921C1063.67 44.9591 1063.48 43.1969 1064.86 42.4137C1066.24 41.4346 1069.58 41.043 1072.94 41.043C1076.29 41.043 1079.84 41.4346 1082.8 42.0221C1085.76 42.6095 1087.93 43.5885 1088.72 45.3508C1089.51 47.113 1088.92 49.6586 1088.32 52.0082C1087.73 54.3579 1086.94 56.7077 1086.94 58.8615C1086.75 61.0154 1087.14 63.3651 1090.1 65.7148C1093.06 68.0645 1098.58 70.61 1102.92 71.3932C1107.25 71.9806 1110.41 70.8058 1112.78 68.2603C1114.95 65.7148 1116.33 61.7987 1115.93 58.0783C1115.54 54.1621 1113.17 50.4418 1112.38 47.8963C1111.59 45.3508 1112.19 43.9801 1114.95 43.0011C1117.71 41.8262 1122.44 40.8472 1127.18 41.4346C1131.91 41.8262 1136.45 43.7843 1138.62 45.155C1140.79 46.5256 1140.79 47.113 1140.4 53.9663C1140 60.8196 1139.02 73.9387 1138.82 82.9459C1138.62 91.9532 1139.21 96.6528 1139.02 99.0018C1138.62 101.156 1137.44 100.96 1134.87 100.96C1132.31 100.96 1128.36 101.352 1125.21 103.898C1122.05 106.443 1119.49 111.338 1117.12 113.492C1114.95 115.646 1112.97 115.058 1111 115.45C1109.03 115.841 1107.06 116.821 1105.88 118.583C1104.69 120.345 1104.5 122.499 1105.29 125.24C1106.07 127.982 1108.44 131.115 1110.61 133.66C1112.78 136.01 1114.55 137.576 1115.93 137.576C1117.31 137.576 1117.91 136.01 1118.1 133.856C1118.3 131.702 1118.3 129.157 1117.71 128.765C1117.31 128.373 1116.33 130.332 1116.33 133.268C1116.13 136.205 1116.92 140.122 1115.93 142.08C1114.95 144.233 1112.38 144.43 1108.63 145.8C1104.89 147.171 1100.16 149.325 1096.41 151.674C1092.66 154.024 1090.1 156.569 1088.52 159.506C1086.94 162.444 1086.35 165.577 1087.53 168.514C1088.92 171.451 1092.07 173.997 1097.2 175.367C1102.33 176.738 1109.42 177.129 1113.76 176.15C1117.91 175.172 1119.29 173.017 1119.49 167.731C1119.88 162.444 1119.09 154.024 1118.3 150.5C1117.51 146.779 1116.53 147.758 1116.13 152.653C1115.74 157.549 1115.74 166.164 1115.54 172.822C1115.34 179.479 1115.14 184.375 1113.37 189.465C1111.79 194.556 1108.83 200.039 1105.48 204.934C1102.13 209.829 1098.19 213.941 1094.83 216.682C1091.48 219.424 1088.52 220.599 1085.17 220.403C1081.81 220.012 1077.87 218.249 1075.5 215.312C1073.13 212.374 1072.15 208.654 1074.12 204.738C1076.09 200.822 1080.83 197.101 1083.39 195.927C1085.96 194.752 1086.35 196.318 1085.17 198.276C1083.98 200.235 1081.42 202.389 1079.25 203.955C1077.08 205.326 1075.11 206.109 1074.32 205.326C1073.72 204.738 1074.32 202.781 1076.88 200.039C1079.45 197.298 1083.98 193.773 1087.53 190.053C1091.09 186.332 1093.65 182.612 1096.41 180.262C1099.17 178.108 1102.33 177.521 1104.89 178.108C1107.45 178.695 1109.62 180.654 1110.61 184.178C1111.59 187.703 1111.59 192.794 1111 198.473C1110.41 204.151 1109.03 210.221 1108.04 215.704C1107.06 221.186 1106.47 225.885 1104.69 230.389C1102.92 234.893 1099.96 239.005 1097.99 242.333C1096.02 245.662 1095.03 248.208 1093.45 250.166C1091.88 252.124 1089.51 253.299 1086.35 254.082C1083.19 254.865 1078.85 255.257 1076.29 254.474C1073.72 253.886 1072.74 252.319 1072.34 249.578C1071.95 246.837 1072.34 242.921 1073.72 239.983C1075.11 236.851 1077.28 234.697 1079.25 233.913C1081.22 233.13 1082.8 233.718 1083.19 235.285C1083.59 236.851 1082.6 239.396 1081.02 241.354C1079.45 243.313 1077.08 244.488 1075.5 244.683C1073.92 244.879 1072.94 243.9 1073.53 241.158C1074.12 238.418 1076.49 233.913 1078.85 230.977C1081.22 227.843 1083.79 226.277 1087.14 224.515C1090.3 222.752 1094.24 220.795 1097.4 219.62C1100.56 218.249 1102.73 217.662 1104.1 219.228C1105.48 220.795 1105.68 224.71 1104.69 230.193C1103.71 235.872 1101.54 243.116 1099.96 249.578C1098.58 256.04 1097.79 261.522 1098.39 272.488C1099.37 295.984 1134.48 421.806 1123.63 433.75C1097.4 428.899 872.026 441.602 747.865 428.54C751.023 423.645 815.751 326.923 822.259 322.418C828.568 317.915 836.456 314.782 843.954 310.279C851.443 305.775 858.55 299.705 868.017 289.328C877.485 278.95 889.122 264.068 896.81 254.669C904.499 245.075 908.056 240.963 911.206 237.243C914.365 233.522 917.324 230.389 923.633 227.452C929.942 224.515 940.008 221.577 949.076 218.64C958.153 215.704 966.232 212.374 973.73 208.85C981.228 205.326 987.935 201.409 991.485 195.535C995.034 189.661 995.424 182.025 993.255 177.129C991.085 172.43 986.547 170.667 982.017 170.667C977.479 170.667 973.339 172.43 969.981 175.367C966.631 178.304 964.063 182.612 964.262 187.311C964.462 192.011 967.222 197.298 970.771 199.843C974.32 202.389 978.659 201.997 982.807 199.451C987.146 196.906 991.285 192.403 992.465 186.528C993.454 180.654 991.485 173.605 987.536 169.689C983.596 165.577 977.869 164.598 968.402 165.772C958.743 166.947 945.327 170.472 931.131 173.605C916.925 176.542 901.939 179.087 893.651 180.067C885.373 181.045 883.594 180.85 882.214 177.912C881.034 175.172 880.244 169.884 880.635 165.772C881.034 161.661 882.414 158.919 881.624 152.653C880.635 146.388 877.485 136.989 875.116 131.898C872.547 126.807 870.777 126.024 871.367 129.157C871.957 132.094 874.716 138.947 880.045 141.492C885.373 144.233 893.261 142.667 898.78 140.513C904.308 138.36 907.458 135.618 909.037 130.723C910.616 126.024 910.616 119.171 910.026 115.45C909.436 111.534 908.447 110.555 907.267 111.926C906.277 113.296 905.097 117.212 905.288 122.107C905.488 127.002 906.868 133.072 911.606 136.597C916.335 140.122 924.622 141.101 930.341 139.338C936.259 137.576 939.808 133.072 941.978 128.569C944.147 124.066 944.737 119.954 942.768 120.149C940.598 120.345 935.66 124.849 933.691 129.94C931.721 135.03 932.71 140.71 935.27 143.842C937.839 146.975 941.579 147.758 944.147 149.521C946.707 151.283 947.697 154.024 950.256 156.569C952.825 159.115 956.574 161.073 954.995 163.031C953.415 164.989 946.317 166.752 938.62 168.514C930.931 170.276 922.843 172.039 917.324 173.017C911.797 173.8 909.037 173.8 906.078 171.647C903.318 169.297 900.359 164.794 900.758 159.898C901.149 155.003 904.698 149.716 907.067 149.129C909.627 148.541 911.007 152.849 910.417 158.136C909.827 163.423 907.458 169.689 902.728 173.017C898.19 176.15 891.291 176.15 886.162 174.388C881.034 172.626 877.485 169.101 874.916 165.577C872.356 162.052 870.976 158.528 868.208 155.982C865.449 153.436 861.11 152.066 857.561 151.087C854.011 150.108 851.252 149.325 848.483 146.583C845.724 143.842 843.364 138.751 842.175 136.01C840.995 133.268 840.995 132.485 841.585 134.247C842.374 136.01 843.754 140.318 846.514 144.038C849.273 147.954 853.612 151.478 857.561 154.808C861.509 158.136 865.058 161.269 867.618 164.989C870.378 168.709 872.156 173.017 875.706 176.542C879.255 180.067 884.583 182.808 890.892 183.983C897.201 184.962 904.308 184.375 916.335 181.829C928.371 179.283 945.527 175.172 955.385 172.039C965.252 169.101 968.011 167.144 967.621 165.577C967.022 164.01 963.273 162.639 959.724 160.681C956.175 158.724 953.025 156.374 951.046 153.045C949.076 149.913 948.287 145.996 949.666 143.646C950.855 141.297 954.205 140.71 956.574 141.101C959.134 141.688 960.913 143.45 962.683 145.605C964.462 147.758 966.232 150.108 969.391 151.087C972.55 152.066 977.279 151.283 980.438 148.738C983.597 146.192 985.367 142.08 987.536 137.576C989.706 133.072 992.075 128.569 994.244 127.199C996.414 125.827 998.184 127.59 1000.95 129.548C1003.71 131.507 1007.65 133.66 1010.81 134.639C1013.97 135.618 1016.53 135.618 1018.5 134.247C1020.48 132.877 1021.86 129.94 1023.24 127.394C1024.62 124.653 1026 122.304 1029.15 121.912C1032.11 121.52 1040 121.716 1041.77 124.849C1043.55 127.982 1045.72 136.402 1043.55 139.338C1041.38 142.08 1030.93 152.849 1034.87 155.982C1038.82 158.919 1044.73 162.248 1049.07 164.402C1053.41 166.752 1055.78 168.122 1055.39 171.059C1054.8 173.997 1051.24 178.695 1048.68 182.612C1045.92 186.528 1044.14 189.661 1040.99 192.206C1037.83 194.752 1033.09 196.514 1030.14 196.514C1027.19 196.514 1025.61 194.752 1024.82 192.206C1023.83 189.661 1023.63 186.528 1021.27 185.55C1018.9 184.57 1014.76 185.549 1011.8 187.311C1009.04 189.073 1007.46 191.619 1007.65 194.361C1007.85 197.101 1009.63 200.431 1012.59 202.389C1015.55 204.346 1019.89 205.13 1021.66 206.696C1023.44 208.263 1022.65 210.809 1020.87 214.92C1019.1 219.228 1016.33 225.102 1014.16 229.215C1011.99 233.326 1010.61 235.48 1007.85 235.676C1005.09 236.068 1001.34 234.697 996.804 232.543C992.274 230.389 987.337 227.648 984.577 224.71C981.818 221.969 981.028 219.032 981.618 215.899C982.208 212.766 983.987 209.242 985.766 207.088C987.536 204.934 989.315 204.346 989.706 206.304C990.105 208.459 988.916 213.354 987.337 217.074C985.766 220.794 983.596 223.34 981.028 224.515C978.468 225.69 975.7 225.69 971.76 225.494C967.812 225.102 962.883 224.515 960.123 223.34C957.364 222.361 957.164 220.795 958.153 220.599C959.134 220.207 961.703 220.99 962.683 223.535C963.672 226.277 963.473 230.78 960.514 234.893C957.754 239.005 952.426 242.529 944.347 244.488C936.259 246.446 925.603 246.837 919.494 245.271C913.376 243.704 911.797 240.375 912.395 239.005C912.985 237.634 915.545 238.026 915.346 240.18C915.155 242.138 912.395 245.662 908.447 246.837C904.499 247.816 899.57 246.446 897.201 243.9C894.84 241.158 895.231 237.438 900.949 232.935C906.668 228.431 917.715 223.535 929.551 219.228C941.388 214.724 954.205 211.004 964.262 207.479C974.32 203.955 981.427 201.018 987.736 198.668C994.045 196.123 999.173 194.165 1001.93 190.248C1004.69 186.332 1005.09 180.262 1003.71 175.759C1002.33 171.255 999.173 167.927 996.014 166.36C993.064 164.794 990.105 164.794 987.337 164.402C984.577 164.01 981.618 163.423 981.028 161.073C980.238 158.724 981.818 154.808 983.787 150.5C985.957 145.996 988.716 141.101 987.146 136.989C985.566 132.681 979.449 129.157 971.361 124.261C963.282 119.366 952.825 112.904 940.789 107.421C928.762 101.939 914.756 97.4352 905.288 95.2817C895.63 93.1281 890.302 93.5197 881.824 96.2612C873.337 99.0018 861.509 103.898 853.421 107.421C845.334 110.946 840.595 113.101 833.896 114.667C827.188 116.233 818.311 117.408 811.603 119.954C805.095 122.695 800.756 126.807 797.207 131.507C793.657 136.01 790.898 141.101 788.138 144.43C785.37 147.758 783.01 149.521 779.261 157.549C775.512 165.577 770.583 179.675 766.244 193.969C761.905 208.459 758.356 223.34 754.998 232.935C751.648 242.725 748.489 247.229 742.771 255.257C737.052 263.285 730.986 281.956 722.699 293.509C709.969 317.201 649.149 411.714 582.987 424.632C494.04 442 28.9108 433.316 -161.566 433.316" stroke="#392627" stroke-width="2" stroke-miterlimit="2.6131"/>
</g>
</g>
<defs>
<clipPath id="clip0_2185_366">
<rect width="1562" height="442" fill="white" transform="translate(-162)"/>
</clipPath>
</defs>
</svg>
