<svg width="335" height="304" viewBox="0 0 335 304" fill="none" xmlns="http://www.w3.org/2000/svg">
<path d="M185.131 101.595L181.131 113.627L151.294 103.707C147.338 102.392 142.981 102.82 139.183 104.899C135.385 106.977 132.457 110.535 131.042 114.79L120.375 146.875L109.186 143.156C104.241 141.511 98.7951 142.047 94.0476 144.645C89.3001 147.243 85.6396 151.691 83.8714 157.009C82.1032 162.328 82.372 168.082 84.6188 173.005C86.8656 177.928 90.9063 181.618 95.852 183.262L107.041 186.982L96.3733 219.068C94.9587 223.323 95.1738 227.926 96.9712 231.864C98.7687 235.803 102.001 238.755 105.958 240.07L134.302 249.494L138.303 237.462C142.303 225.43 154.454 218.78 165.643 222.5C176.831 226.22 182.582 238.822 178.582 250.854L174.582 262.886L202.926 272.309C206.883 273.625 211.239 273.196 215.037 271.118C218.835 269.039 221.764 265.481 223.178 261.227L233.312 230.745L222.124 227.025C210.935 223.306 205.184 210.704 209.184 198.672C213.185 186.64 225.336 179.99 236.525 183.71L247.713 187.43L257.847 156.949C259.262 152.694 259.047 148.091 257.249 144.152C255.452 140.213 252.219 137.261 248.263 135.946L218.426 126.026L222.427 113.994C224.195 108.676 223.926 102.922 221.679 97.9985C219.432 93.075 215.392 89.3853 210.446 87.7411C205.5 86.0968 200.055 86.6326 195.307 89.2306C190.56 91.8287 186.899 96.2762 185.131 101.595Z" fill="#A2A873"/>
<path d="M129.375 215.323L117.676 195.205L123.137 192.028L127.707 199.887L134.937 195.683L130.367 187.824L135.829 184.648L147.529 204.766L142.067 207.942L137.497 200.083L130.267 204.288L134.837 212.147L129.375 215.323ZM158.697 198.639C157.086 199.576 155.519 200.076 153.995 200.138C152.474 200.19 151.062 199.819 149.759 199.026C148.459 198.222 147.337 197.008 146.392 195.384C145.486 193.825 145.008 192.28 144.959 190.749C144.91 189.217 145.27 187.794 146.039 186.479C146.808 185.165 147.972 184.054 149.53 183.148C150.67 182.485 151.804 182.062 152.933 181.879C154.062 181.695 155.15 181.75 156.197 182.044C157.241 182.331 158.217 182.85 159.127 183.601C160.037 184.351 160.84 185.325 161.537 186.524L162.268 187.781L148.79 195.619L147.054 192.633L155.541 187.697C155.283 187.269 154.951 186.954 154.544 186.752C154.141 186.54 153.705 186.447 153.239 186.473C152.774 186.488 152.316 186.628 151.865 186.89C151.426 187.146 151.078 187.475 150.822 187.878C150.562 188.275 150.416 188.701 150.383 189.158C150.358 189.611 150.466 190.061 150.708 190.508L152.582 193.73C152.864 194.214 153.216 194.588 153.64 194.849C154.064 195.111 154.529 195.24 155.035 195.235C155.54 195.23 156.061 195.071 156.598 194.759C156.972 194.542 157.282 194.292 157.529 194.008C157.782 193.72 157.963 193.414 158.071 193.088C158.176 192.755 158.199 192.418 158.14 192.075L163.091 189.196C163.53 190.343 163.656 191.487 163.47 192.629C163.281 193.765 162.786 194.85 161.986 195.885C161.188 196.91 160.092 197.828 158.697 198.639ZM173.585 189.929C172.622 190.489 171.679 190.827 170.757 190.943C169.836 191.048 168.978 190.899 168.182 190.494C167.386 190.09 166.697 189.386 166.114 188.384C165.634 187.559 165.365 186.773 165.308 186.027C165.247 185.273 165.36 184.564 165.647 183.897C165.934 183.231 166.355 182.605 166.909 182.02C167.469 181.431 168.121 180.881 168.867 180.369C169.673 179.812 170.305 179.339 170.763 178.95C171.223 178.551 171.518 178.2 171.648 177.896C171.775 177.586 171.754 177.287 171.587 176.999L171.564 176.96C171.335 176.567 171.01 176.353 170.586 176.319C170.163 176.284 169.716 176.404 169.244 176.678C168.727 176.979 168.371 177.339 168.177 177.759C167.986 178.168 167.993 178.625 168.197 179.128L163.207 182.03C162.739 181.075 162.54 180.06 162.608 178.987C162.678 177.903 163.079 176.837 163.811 175.789C164.539 174.735 165.653 173.772 167.152 172.9C168.233 172.271 169.276 171.835 170.283 171.592C171.285 171.342 172.219 171.268 173.085 171.369C173.946 171.464 174.709 171.721 175.374 172.141C176.041 172.55 176.579 173.105 176.986 173.806L182.996 184.14L177.927 187.088L176.693 184.966L176.575 185.035C176.602 185.773 176.5 186.442 176.269 187.04C176.045 187.635 175.704 188.171 175.245 188.648C174.793 189.121 174.24 189.548 173.585 189.929ZM173.365 185.482C173.778 185.242 174.114 184.932 174.376 184.553C174.643 184.169 174.799 183.75 174.841 183.296C174.884 182.842 174.772 182.385 174.505 181.927L173.774 180.67C173.664 180.812 173.543 180.957 173.409 181.105C173.283 181.249 173.141 181.397 172.984 181.549C172.834 181.698 172.669 181.851 172.489 182.009C172.315 182.162 172.13 182.318 171.933 182.476C171.552 182.786 171.271 183.094 171.09 183.4C170.912 183.697 170.82 183.991 170.815 184.284C170.812 184.565 170.887 184.837 171.039 185.099C171.283 185.518 171.617 185.754 172.041 185.805C172.465 185.856 172.907 185.749 173.365 185.482ZM180.416 158.719L192.116 178.837L186.693 181.99L174.994 161.872L180.416 158.719ZM196.209 156.265L198.494 160.195L188.553 165.976L186.268 162.046L196.209 156.265ZM186.091 157.312L191.513 154.158L199.568 168.009C199.69 168.219 199.829 168.375 199.985 168.477C200.137 168.573 200.309 168.613 200.501 168.597C200.69 168.575 200.902 168.495 201.138 168.358C201.302 168.263 201.48 168.133 201.674 167.968C201.873 167.799 202.018 167.671 202.108 167.584L205.11 170.939C204.91 171.152 204.614 171.442 204.223 171.809C203.839 172.173 203.348 172.55 202.752 172.941C201.545 173.73 200.426 174.21 199.395 174.38C198.36 174.544 197.426 174.399 196.592 173.946C195.759 173.493 195.043 172.736 194.443 171.674L186.091 157.312ZM209.114 157.594L214.049 166.082L208.627 169.235L196.927 149.117L202.153 146.078L206.746 153.976L206.904 153.884C206.684 152.724 206.815 151.644 207.295 150.647C207.771 149.642 208.566 148.816 209.679 148.169C210.747 147.548 211.814 147.252 212.882 147.279C213.956 147.303 214.957 147.615 215.884 148.215C216.818 148.811 217.602 149.661 218.235 150.765L223.833 160.392L218.411 163.545L213.475 155.058C213.048 154.308 212.52 153.83 211.893 153.625C211.272 153.417 210.614 153.514 209.92 153.918C209.481 154.173 209.152 154.496 208.932 154.887C208.715 155.267 208.62 155.691 208.646 156.157C208.675 156.614 208.831 157.093 209.114 157.594Z" fill="white"/>
</svg>
