<svg width="295" height="295" viewBox="0 0 295 295" fill="none" xmlns="http://www.w3.org/2000/svg">
<path d="M113.007 82.6421C110.925 78.7014 110.494 74.0948 111.808 69.8359C113.122 65.577 116.074 62.0146 120.015 59.9323C123.956 57.8501 128.562 57.4186 132.821 58.7327C137.08 60.0469 140.642 62.9991 142.725 66.9398L145.342 71.8927C146.73 74.5199 149.105 76.488 151.944 77.3641C154.783 78.2402 157.854 77.9525 160.481 76.5644L190.199 60.8621C192.826 59.4739 195.897 59.1862 198.736 60.0623C201.575 60.9384 203.95 62.9066 205.339 65.5337L221.041 95.251C222.429 97.8781 222.717 100.949 221.841 103.788C220.964 106.628 218.996 109.003 216.369 110.391L211.416 113.008C207.476 115.09 204.523 118.653 203.209 122.911C201.895 127.17 202.327 131.777 204.409 135.718C206.491 139.658 210.054 142.611 214.312 143.925C218.571 145.239 223.178 144.807 227.119 142.725L232.071 140.108C234.699 138.72 237.77 138.432 240.609 139.308C243.448 140.184 245.823 142.153 247.211 144.78L262.914 174.497C264.302 177.124 264.589 180.195 263.713 183.034C262.837 185.874 260.869 188.249 258.242 189.637L228.525 205.339C225.898 206.727 222.827 207.015 219.987 206.139C217.148 205.263 214.773 203.295 213.385 200.667L210.768 195.715C208.686 191.774 205.123 188.822 200.864 187.507C196.605 186.193 191.999 186.625 188.058 188.707C184.117 190.789 181.165 194.352 179.851 198.611C178.537 202.87 178.968 207.476 181.051 211.417L183.668 216.37C185.056 218.997 185.343 222.068 184.467 224.907C183.591 227.746 181.623 230.121 178.996 231.51L149.279 247.212C146.652 248.6 143.581 248.888 140.741 248.012C137.902 247.136 135.527 245.167 134.139 242.54L118.437 212.823C117.048 210.196 114.673 208.228 111.834 207.352C108.995 206.475 105.924 206.763 103.297 208.151L98.3438 210.768C94.4031 212.851 89.7966 213.282 85.5377 211.968C81.2787 210.654 77.7163 207.702 75.6341 203.761C73.5518 199.82 73.1203 195.214 74.4345 190.955C75.7486 186.696 78.7008 183.133 82.6415 181.051L87.5944 178.434C90.2216 177.046 92.1897 174.671 93.0658 171.832C93.9419 168.992 93.6542 165.921 92.2661 163.294L76.5638 133.577C75.1756 130.95 74.8879 127.879 75.7641 125.04C76.6402 122.2 78.6083 119.825 81.2354 118.437L110.953 102.735C113.58 101.347 115.548 98.9717 116.424 96.1324C117.3 93.2932 117.013 90.2222 115.624 87.595L113.007 82.6421Z" fill="#EB987E"/>
<path d="M90.2712 149.655L94.9722 124.638L101.764 125.915L99.9275 135.687L108.918 137.376L110.754 127.604L117.546 128.88L112.845 153.897L106.053 152.621L107.89 142.849L98.8991 141.159L97.0628 150.931L90.2712 149.655ZM126.518 156.821C124.482 156.438 122.815 155.707 121.517 154.629C120.221 153.542 119.322 152.201 118.821 150.606C118.321 149.003 118.252 147.241 118.613 145.319C118.974 143.397 119.678 141.784 120.724 140.48C121.771 139.168 123.095 138.245 124.697 137.711C126.299 137.169 128.118 137.089 130.154 137.472C132.19 137.854 133.856 138.589 135.153 139.676C136.451 140.754 137.35 142.095 137.849 143.698C138.351 145.293 138.421 147.051 138.059 148.973C137.698 150.895 136.994 152.512 135.946 153.824C134.9 155.129 133.576 156.052 131.974 156.594C130.373 157.127 128.554 157.203 126.518 156.821ZM127.504 151.846C128.074 151.953 128.602 151.854 129.09 151.55C129.577 151.245 130.001 150.76 130.362 150.094C130.723 149.428 130.996 148.607 131.179 147.63C131.364 146.644 131.409 145.78 131.312 145.037C131.218 144.286 130.998 143.68 130.655 143.219C130.312 142.758 129.855 142.474 129.285 142.367C128.682 142.254 128.129 142.348 127.626 142.65C127.122 142.951 126.69 143.435 126.329 144.1C125.969 144.758 125.697 145.579 125.511 146.565C125.328 147.542 125.283 148.406 125.378 149.158C125.473 149.909 125.7 150.516 126.06 150.98C126.42 151.444 126.901 151.733 127.504 151.846ZM154.127 153.156L156.11 142.602L162.853 143.869L159.327 162.632L152.926 161.429L153.597 157.862L153.401 157.825C152.769 158.946 151.88 159.748 150.735 160.233C149.592 160.71 148.32 160.816 146.919 160.553C145.608 160.307 144.517 159.79 143.645 159.002C142.781 158.216 142.175 157.242 141.829 156.081C141.49 154.921 141.445 153.656 141.694 152.287L143.944 140.316L150.686 141.583L148.703 152.137C148.537 153.067 148.636 153.84 149.001 154.456C149.374 155.075 149.984 155.463 150.83 155.622C151.392 155.728 151.899 155.701 152.351 155.541C152.812 155.375 153.194 155.093 153.496 154.694C153.808 154.289 154.019 153.776 154.127 153.156ZM183.66 154.102L177.455 152.936C177.495 152.548 177.422 152.192 177.238 151.871C177.054 151.55 176.788 151.281 176.441 151.064C176.104 150.84 175.711 150.686 175.263 150.602C174.685 150.494 174.168 150.506 173.713 150.64C173.258 150.773 172.998 151.037 172.933 151.429C172.873 151.704 172.942 151.983 173.142 152.265C173.35 152.549 173.801 152.823 174.493 153.088L178.175 154.488C180.031 155.199 181.35 156.058 182.13 157.065C182.92 158.065 183.189 159.258 182.937 160.644C182.678 161.978 182.061 163.063 181.086 163.9C180.12 164.731 178.907 165.287 177.446 165.569C175.995 165.844 174.402 165.819 172.668 165.493C169.801 164.954 167.668 163.946 166.268 162.469C164.875 160.993 164.266 159.277 164.44 157.32L171.134 158.578C171.112 159.189 171.319 159.704 171.754 160.123C172.199 160.536 172.805 160.814 173.57 160.958C174.189 161.074 174.718 161.064 175.157 160.927C175.604 160.792 175.868 160.53 175.95 160.14C176.009 159.78 175.883 159.462 175.573 159.184C175.271 158.908 174.765 158.636 174.057 158.368L170.845 157.157C168.994 156.464 167.68 155.559 166.903 154.444C166.126 153.328 165.88 152.034 166.165 150.562C166.402 149.257 166.951 148.218 167.814 147.444C168.685 146.664 169.813 146.159 171.196 145.93C172.59 145.695 174.178 145.744 175.961 146.08C178.673 146.589 180.705 147.553 182.058 148.97C183.418 150.389 183.952 152.1 183.66 154.102ZM185.73 167.593L189.256 148.831L195.999 150.098L192.473 168.86L185.73 167.593ZM192.995 147.51C192.083 147.338 191.358 146.89 190.819 146.165C190.281 145.44 190.092 144.654 190.251 143.807C190.41 142.96 190.872 142.297 191.637 141.817C192.401 141.336 193.24 141.182 194.152 141.353C195.072 141.526 195.797 141.974 196.327 142.698C196.865 143.423 197.055 144.209 196.896 145.056C196.737 145.903 196.275 146.566 195.51 147.047C194.753 147.528 193.915 147.683 192.995 147.51ZM206.011 160.478L204.027 171.031L197.285 169.764L200.81 151.002L207.211 152.205L206.541 155.772L206.736 155.808C207.367 154.696 208.259 153.898 209.412 153.415C210.573 152.933 211.842 152.822 213.218 153.081C214.545 153.33 215.64 153.852 216.503 154.646C217.375 155.434 217.98 156.408 218.319 157.567C218.665 158.729 218.707 159.988 218.443 161.347L216.194 173.318L209.451 172.051L211.434 161.497C211.617 160.57 211.518 159.797 211.137 159.177C210.764 158.559 210.154 158.17 209.307 158.011C208.753 157.907 208.246 157.938 207.785 158.105C207.333 158.264 206.955 158.547 206.651 158.954C206.349 159.352 206.135 159.86 206.011 160.478ZM228.542 183.327C226.661 182.974 225.099 182.402 223.856 181.612C222.62 180.832 221.72 179.904 221.155 178.828C220.596 177.762 220.385 176.618 220.522 175.396L227.021 176.617C227.011 177.028 227.113 177.38 227.328 177.674C227.543 177.967 227.844 178.205 228.231 178.387C228.625 178.579 229.078 178.723 229.591 178.82C230.463 178.984 231.223 178.907 231.873 178.591C232.531 178.276 232.963 177.565 233.172 176.457L233.768 173.282L233.573 173.245C233.209 173.834 232.733 174.305 232.144 174.658C231.556 175.003 230.886 175.227 230.133 175.33C229.382 175.425 228.583 175.393 227.736 175.234C226.4 174.983 225.229 174.442 224.221 173.612C223.222 172.784 222.511 171.634 222.087 170.163C221.672 168.694 221.668 166.876 222.075 164.71C222.5 162.446 223.196 160.672 224.163 159.386C225.138 158.103 226.245 157.236 227.484 156.786C228.732 156.337 229.975 156.229 231.213 156.462C232.141 156.636 232.925 156.952 233.564 157.41C234.205 157.859 234.711 158.397 235.082 159.023C235.455 159.641 235.704 160.29 235.829 160.972L235.975 160.999L236.59 157.725L243.333 158.993L239.817 177.706C239.518 179.294 238.854 180.565 237.823 181.518C236.799 182.48 235.491 183.115 233.899 183.423C232.306 183.731 230.521 183.699 228.542 183.327ZM231.128 170.914C231.746 171.03 232.308 170.958 232.812 170.699C233.326 170.433 233.761 170 234.118 169.402C234.485 168.796 234.754 168.037 234.925 167.125C235.1 166.197 235.127 165.38 235.006 164.674C234.896 163.962 234.649 163.389 234.267 162.955C233.895 162.514 233.399 162.235 232.78 162.119C232.161 162.002 231.598 162.082 231.091 162.358C230.594 162.627 230.164 163.073 229.803 163.696C229.451 164.313 229.188 165.086 229.013 166.014C228.839 166.942 228.804 167.754 228.91 168.448C229.025 169.136 229.266 169.691 229.634 170.114C230.011 170.531 230.509 170.797 231.128 170.914Z" fill="white"/>
</svg>
