<svg width="191" height="79" viewBox="0 0 191 79" fill="none" xmlns="http://www.w3.org/2000/svg">
<path d="M7.39522 20.743C11.4357 18.7655 20.8613 18.6877 22.5057 22.4156C22.6612 22.7682 22.6247 23.203 22.2914 23.3956C20.8016 24.2566 15.964 23.5244 14.7278 23.2225C13.3316 22.8815 9.1047 21.4463 7.39522 20.743Z" fill="#A2A873"/>
<path d="M7.39522 20.743C11.4357 18.7655 20.8613 18.6877 22.5057 22.4156C22.6612 22.7682 22.6247 23.203 22.2914 23.3956C20.8016 24.2566 15.964 23.5244 14.7278 23.2225C13.3316 22.8815 9.1047 21.4463 7.39522 20.743Z" stroke="white"/>
<path d="M7.95299 30.4251C13.2295 27.2627 21.4265 27.1197 26.4814 29.2123C28.3683 29.9934 29.7811 31.6379 30.1695 33.5536C30.2686 34.0425 30.2265 34.5782 29.8991 34.9577C28.4256 36.6658 24.0165 35.4718 21.3083 34.4402C18.1448 33.235 13.8557 31.6119 9.84159 30.8109C9.49883 30.7425 9.22972 30.698 8.99877 30.6599C8.59703 30.5935 8.31073 30.5463 7.95299 30.4251Z" fill="#A2A873"/>
<path d="M7.95299 30.4251C13.2295 27.2627 21.4265 27.1197 26.4814 29.2123C28.3683 29.9934 29.7811 31.6379 30.1695 33.5536C30.2686 34.0425 30.2265 34.5782 29.8991 34.9577C28.4256 36.6658 24.0165 35.4718 21.3083 34.4402C18.1448 33.235 13.8557 31.6119 9.84159 30.8109C9.49883 30.7425 9.22972 30.698 8.99877 30.6599C8.59703 30.5935 8.31073 30.5463 7.95299 30.4251Z" stroke="white"/>
<path d="M48.8485 40.2093C50.0886 43.7324 59.0397 43.1395 63.8474 37.2997C62.8761 37.2246 62.0625 37.2152 61.2489 37.2058C60.4352 37.1964 59.6216 37.1871 58.6503 37.1119C52.8225 36.6612 48.2522 38.0884 48.8485 40.2093Z" fill="#A2A873"/>
<path d="M48.8485 40.2093C50.0886 43.7324 59.0397 43.1395 63.8474 37.2997C62.8761 37.2246 62.0625 37.2152 61.2489 37.2058C60.4352 37.1964 59.6216 37.1871 58.6503 37.1119C52.8225 36.6612 48.2522 38.0884 48.8485 40.2093Z" stroke="white"/>
<path d="M35.156 48.0526C35.0411 42.8157 23.6737 36.6493 11.9377 39.0906C12.6676 39.5886 13.5631 40.3035 14.6543 41.1746C15.1371 41.5601 15.6583 41.9762 16.2204 42.4176C26.8686 50.7793 31.7849 50.7898 34.4623 49.2263C34.8862 48.9788 35.1666 48.5379 35.156 48.0526Z" fill="#A2A873"/>
<path d="M35.156 48.0526C35.0411 42.8157 23.6737 36.6493 11.9377 39.0906C12.6676 39.5886 13.5631 40.3035 14.6543 41.1746C15.1371 41.5601 15.6583 41.9762 16.2204 42.4176C26.8686 50.7793 31.7849 50.7898 34.4623 49.2263C34.8862 48.9788 35.1666 48.5379 35.156 48.0526Z" stroke="white"/>
<path d="M37.9837 64.5503C40.0588 60.4547 26.845 47.4274 11.1805 47.6168C11.9074 48.5724 12.7254 49.3484 13.4591 50.0446C13.8686 50.4331 14.2518 50.7967 14.5784 51.1527C15.4802 52.136 16.1504 52.958 16.8283 53.7895C17.7506 54.9207 18.6874 56.0696 20.2417 57.6666C29.239 66.9115 36.6631 67.1566 37.9837 64.5503Z" fill="#A2A873"/>
<path d="M37.9837 64.5503C40.0588 60.4547 26.845 47.4274 11.1805 47.6168C11.9074 48.5724 12.7254 49.3484 13.4591 50.0446C13.8686 50.4331 14.2518 50.7967 14.5784 51.1527C15.4802 52.136 16.1504 52.958 16.8283 53.7895C17.7506 54.9207 18.6874 56.0696 20.2417 57.6666C29.239 66.9115 36.6631 67.1566 37.9837 64.5503Z" stroke="white"/>
<path d="M60.412 43.0065C50.2847 42.7411 42.2585 48.3885 41.4654 51.7308C41.3736 52.1175 41.4718 52.5465 41.7998 52.776C43.5024 53.9674 49.245 53.114 52.3512 51.3686C55.8706 49.7085 59.2319 46.6177 60.412 43.0065Z" fill="#A2A873"/>
<path d="M60.412 43.0065C50.2847 42.7411 42.2585 48.3885 41.4654 51.7308C41.3736 52.1175 41.4718 52.5465 41.7998 52.776C43.5024 53.9674 49.245 53.114 52.3512 51.3686C55.8706 49.7085 59.2319 46.6177 60.412 43.0065Z" stroke="white"/>
<path d="M56.4404 64.7576C50.4968 68.5111 44.5659 67.9809 43.5816 66.4647C42.4792 64.7666 48.03 58.564 51.4082 56.3913C56.0484 53.4072 62.3179 51.1745 68.4878 50.7359C68.1557 51.5695 67.7228 52.2477 67.3667 52.8057C67.2346 53.0127 67.113 53.2032 67.0111 53.3788C64.0597 58.466 59.7532 62.6655 56.4404 64.7576Z" fill="#A2A873"/>
<path d="M56.4404 64.7576C50.4968 68.5111 44.5659 67.9809 43.5816 66.4647C42.4792 64.7666 48.03 58.564 51.4082 56.3913C56.0484 53.4072 62.3179 51.1745 68.4878 50.7359C68.1557 51.5695 67.7228 52.2477 67.3667 52.8057C67.2346 53.0127 67.113 53.2032 67.0111 53.3788C64.0597 58.466 59.7532 62.6655 56.4404 64.7576Z" stroke="white"/>
<path d="M54.8936 32.5928C58.3714 34.6823 64.3825 33.3291 67.4023 30.0964C63.367 28.4251 56.1278 28.8153 54.2975 30.6693C53.7146 31.2598 54.1821 32.1653 54.8936 32.5928Z" fill="#A2A873"/>
<path d="M54.8936 32.5928C58.3714 34.6823 64.3825 33.3291 67.4023 30.0964C63.367 28.4251 56.1278 28.8153 54.2975 30.6693C53.7146 31.2598 54.1821 32.1653 54.8936 32.5928Z" stroke="white"/>
<path d="M37.5227 73.2272C36.2591 48.2893 32.1915 35.016 18.2935 16.9157C17.7733 16.2382 18.0943 15.242 18.9165 15.0103L20.7915 14.4819C21.2285 14.3587 21.6993 14.4944 22.0044 14.8306C31.5545 25.3561 37.9906 34.227 40.6491 45.2733C42.9509 36.887 49.6808 31.0541 53.7825 26.8682C54.2708 26.3699 55.1115 26.4903 55.4269 27.1126L56.3175 28.8694C56.5024 29.2342 56.4464 29.6744 56.178 29.9828C50.683 36.2965 45.5837 43.3762 42.2774 53.781C43.1351 59.4749 43.7159 65.8313 44.3001 73.2272H37.5227Z" fill="#BC7868"/>
<path d="M43.7 15.4129C36.1266 18.1458 30.8081 25.4628 32.762 28.8967C33.0178 29.3463 33.5591 29.54 34.0323 29.3195C35.7815 28.5044 38.7561 25.4737 40.5823 22.3083C41.2176 21.0157 41.6714 19.9817 42.2367 18.6934C42.6349 17.7858 43.0885 16.7521 43.7 15.4129Z" fill="#A2A873"/>
<path d="M43.7 15.4129C36.1266 18.1458 30.8081 25.4628 32.762 28.8967C33.0178 29.3463 33.5591 29.54 34.0323 29.3195C35.7815 28.5044 38.7561 25.4737 40.5823 22.3083C41.2176 21.0157 41.6714 19.9817 42.2367 18.6934C42.6349 17.7858 43.0885 16.7521 43.7 15.4129Z" stroke="white"/>
<path d="M29.1007 22.6166C31.8544 21.1969 35.1384 14.6048 33.2892 9.45735C33.1003 9.24613 32.6783 9.9334 31.95 11.1195C31.8715 11.2473 31.7895 11.3809 31.7038 11.5199C30.8047 12.6766 30.1653 13.8333 29.7638 14.5596C29.6146 14.8295 29.4982 15.04 29.4136 15.1689C27.3689 18.2853 27.2902 22.0341 28.2999 22.6888C28.539 22.8439 28.8474 22.7472 29.1007 22.6166Z" fill="#A2A873"/>
<path d="M29.1007 22.6166C31.8544 21.1969 35.1384 14.6048 33.2892 9.45735C33.1003 9.24613 32.6783 9.9334 31.95 11.1195C31.8715 11.2473 31.7895 11.3809 31.7038 11.5199C30.8047 12.6766 30.1653 13.8333 29.7638 14.5596C29.6146 14.8295 29.4982 15.04 29.4136 15.1689C27.3689 18.2853 27.2902 22.0341 28.2999 22.6888C28.539 22.8439 28.8474 22.7472 29.1007 22.6166Z" stroke="white"/>
<path d="M52.6499 27.8733C50.4701 24.4833 51.7254 18.5351 54.9414 15.4963C56.7136 19.442 56.4596 26.585 54.6174 28.4287C54.0304 29.0161 53.0988 28.5714 52.6499 27.8733Z" fill="#A2A873"/>
<path d="M52.6499 27.8733C50.4701 24.4833 51.7254 18.5351 54.9414 15.4963C56.7136 19.442 56.4596 26.585 54.6174 28.4287C54.0304 29.0161 53.0988 28.5714 52.6499 27.8733Z" stroke="white"/>
<path d="M46.8483 35.434C43.11 34.8744 42.0673 26.086 47.0113 20.3579C47.2635 21.2861 47.4213 22.0734 47.5792 22.8607C47.737 23.648 47.8948 24.4353 48.147 25.3635C49.66 30.9327 49.0713 35.6252 46.8483 35.434Z" fill="#A2A873"/>
<path d="M46.8483 35.434C43.11 34.8744 42.0673 26.086 47.0113 20.3579C47.2635 21.2861 47.4213 22.0734 47.5792 22.8607C47.737 23.648 47.8948 24.4353 48.147 25.3635C49.66 30.9327 49.0713 35.6252 46.8483 35.434Z" stroke="white"/>
<path d="M7.94695 5.77319C15.52 7.35279 21.0068 13.1408 20.1887 16.0157C20.0621 16.4606 19.6361 16.7757 19.1864 16.6667C17.3818 16.2293 13.4919 12.5981 7.94695 5.77319Z" fill="#A2A873"/>
<path d="M7.94695 5.77319C15.52 7.35279 21.0068 13.1408 20.1887 16.0157C20.0621 16.4606 19.6361 16.7757 19.1864 16.6667C17.3818 16.2293 13.4919 12.5981 7.94695 5.77319Z" stroke="white"/>
<path d="M92.9419 37.4194C86.8792 37.4194 82.4727 33.1606 82.4727 27.3268C82.4727 21.5221 86.8496 17.2051 92.9715 17.2051C97.2302 17.2051 100.809 19.3053 102.287 22.5722L96.4317 25.5475C95.781 24.1765 94.4206 23.3598 92.8532 23.3598C90.6056 23.3598 89.0086 24.9933 89.0086 27.3268C89.0086 29.6312 90.6351 31.2938 92.8828 31.2938C94.5389 31.2938 95.9585 30.3604 96.5204 28.9311L102.494 31.6438C101.104 35.1442 97.3781 37.4194 92.9419 37.4194Z" fill="#A2A873"/>
<path d="M122.886 37.0693H115.729L115.226 34.765H109.696L109.134 37.0693H101.888L108.247 17.5551H116.675L122.886 37.0693ZM111.027 29.2228H113.984L112.446 23.0098L111.027 29.2228Z" fill="#A2A873"/>
<path d="M132.549 37.3902C127.225 37.3902 123.381 34.0649 123.381 29.0478V17.5551H130.183V28.5227C130.183 29.777 130.922 30.9146 132.549 30.9146C134.146 30.9146 134.915 29.7478 134.915 28.5227V17.5551H141.717V29.0478C141.717 34.0649 137.872 37.3902 132.549 37.3902Z" fill="#A2A873"/>
<path d="M152.575 37.3902C148.908 37.3902 145.477 36.1359 143.318 34.4733L145.98 29.3395C147.695 30.6229 150.238 31.7605 153.196 31.7605C154.231 31.7605 154.852 31.5272 154.852 31.0021C154.852 30.2146 153.669 30.1562 152.131 29.8937C148.937 29.3686 144.294 28.5519 144.294 23.7098C144.294 19.3053 148.05 17.2342 153.285 17.2342C157.75 17.2342 160.412 18.6344 161.565 19.3928L158.874 24.3807C157.543 23.564 155.089 22.6597 152.752 22.6597C151.688 22.6597 151.185 22.8931 151.185 23.3598C151.185 24.0015 151.983 24.0598 153.196 24.2932C156.272 24.8766 161.832 25.4891 161.832 30.5938C161.832 34.765 158.578 37.3902 152.575 37.3902Z" fill="#A2A873"/>
<path d="M170.73 29.8354V31.4688H179.514V37.0693H164.165V17.5551H179.189V23.1556H170.73V24.7599H178.952V29.8354H170.73Z" fill="#A2A873"/>
<path d="M95.2459 51.5567V44.2936H102.137V63.8078H95.2459V57.7406H90.1887V63.8078H83.298V44.2936H90.1887V51.5567H95.2459Z" fill="#A2A873"/>
<path d="M124.503 63.8078H117.346L116.843 61.5034H111.313L110.751 63.8078H103.505L109.864 44.2936H118.293L124.503 63.8078ZM112.644 55.9613H115.601L114.063 49.7482L112.644 55.9613Z" fill="#A2A873"/>
<path d="M134.819 64.1578C128.757 64.1578 124.35 59.8991 124.35 54.0653C124.35 48.2606 128.727 43.9435 134.849 43.9435C139.108 43.9435 142.686 46.0437 144.165 49.3107L138.309 52.2859C137.659 50.915 136.298 50.0982 134.731 50.0982C132.483 50.0982 130.886 51.7317 130.886 54.0653C130.886 56.3696 132.513 58.0323 134.76 58.0323C136.416 58.0323 137.836 57.0989 138.398 55.6696L144.372 58.3823C142.982 61.8826 139.256 64.1578 134.819 64.1578Z" fill="#A2A873"/>
<path d="M157.327 44.2936H165.253L158.806 54.4445L165.194 63.8078H156.883L152.773 57.1864V63.8078H145.941V44.2936H152.773V51.8192L157.327 44.2936Z" fill="#A2A873"/>
<path d="M174.178 64.1287C170.511 64.1287 167.08 62.8744 164.921 61.2117L167.583 56.0779C169.298 57.3614 171.841 58.499 174.799 58.499C175.834 58.499 176.455 58.2656 176.455 57.7406C176.455 56.953 175.272 56.8947 173.734 56.6322C170.54 56.1071 165.897 55.2904 165.897 50.4483C165.897 46.0437 169.653 43.9727 174.888 43.9727C179.353 43.9727 182.015 45.3728 183.168 46.1312L180.477 51.1192C179.146 50.3024 176.692 49.3982 174.355 49.3982C173.291 49.3982 172.788 49.6315 172.788 50.0982C172.788 50.74 173.586 50.7983 174.799 51.0317C177.875 51.615 183.435 52.2276 183.435 57.3322C183.435 61.5034 180.181 64.1287 174.178 64.1287Z" fill="#A2A873"/>
</svg>
