<svg width="1282" height="532" viewBox="0 0 1282 532" fill="none" xmlns="http://www.w3.org/2000/svg">
<path d="M575.906 283.247C579.191 283.467 591.036 279.181 596.549 277.011C599.608 281.829 605.525 287.366 609.209 298.769C611.746 306.625 614.086 323.927 614.425 330.513C610.157 331.507 600.736 333.851 597.19 335.271C592.758 337.047 587.994 340.141 594.527 344.359C601.061 348.576 599.048 353.562 597.187 356.059C595.326 358.555 590.737 362.088 582.325 358.171C575.596 355.038 576.593 347.119 577.932 343.551C578.502 343.549 578.407 343.022 573.464 340.935C568.521 338.848 558.101 344.417 553.507 347.462C550.924 345.277 545.58 340.029 544.868 336.519C543.977 332.131 546.512 328.461 548.554 327.135C550.596 325.808 555.575 328.276 559.845 327.526C564.114 326.775 567.993 320.025 566.579 314.322C565.179 308.679 560.308 308.353 556.227 308.08L556.097 308.072C551.989 307.796 550.972 308.825 549.959 310.586C548.948 312.347 547.918 311.913 545.871 312.507C543.823 313.101 541.264 313.844 536.965 310.935C533.525 308.607 533.165 299.24 533.414 294.847C536.377 294.639 543.325 293.78 547.415 292.006C552.528 289.788 555.925 286.846 556.937 285.085C557.948 283.324 551.415 279.106 550.379 277.94C549.345 276.773 546.377 269.32 556.783 266.055C567.188 262.79 569.813 270.098 570.692 273.022C571.571 275.946 567.15 279.186 568.703 280.936C570.257 282.686 571.798 282.972 575.906 283.247Z" fill="#ADB885"/>
<path d="M447.638 332.326L440.301 333.953L448.12 346.342C451.554 347.792 459.396 352.121 463.283 357.834C467.171 363.546 462.257 369.275 459.314 371.425L460.221 376.533L462.536 385.871C463.391 385.869 466.332 385.802 471.255 385.554C477.408 385.244 482.837 380.994 483.999 377.486C485.161 373.979 480.032 373.993 476.392 369.185C472.754 364.377 478.68 358.519 486.192 357.33C493.705 356.14 497.577 361.959 497.899 365.181C498.089 367.079 494.677 367.818 495.743 371.904C496.81 375.989 514.421 375.792 521.057 372.415C527.692 369.037 523.403 367.59 520.479 365.992C517.557 364.394 516.855 362.644 513.91 358.856C510.965 355.068 513.626 347.467 515.321 346.002C517.017 344.537 518.741 345.993 522.504 346.128C526.268 346.263 530.872 344.935 531.837 338.8C532.801 332.664 530.215 330.482 524.2 327.579C518.187 324.676 511.434 333.456 509.045 333.901C506.655 334.346 505.083 331.138 502.665 328.663C500.73 326.683 498.58 319.184 497.747 315.682C495.922 315.638 491.317 315.583 487.487 315.711C482.701 315.871 473.514 320.716 477.139 324.064C480.763 327.412 484.915 332.072 484.439 335.87C483.964 339.668 481.932 341.718 475.451 343.343C468.968 344.968 463.108 340.312 463.387 333.887C463.608 328.746 461.034 326.593 459.718 326.158C457.105 324.764 450.576 329.689 447.638 332.326Z" fill="#E38762"/>
<path d="M802.254 355.712C802.058 355.764 801.849 355.763 801.656 355.707C796.129 354.064 790.094 354.839 790.035 354.846C789.984 354.854 789.933 354.857 789.881 354.856C785.16 354.834 782.88 355.944 780.863 356.922C779.811 357.502 778.657 357.928 777.451 358.182C751.536 362.597 731.278 346.68 719.178 337.17L718.422 336.578C703.507 324.874 688.858 319.54 679.197 317.126C681.547 318.26 683.827 319.499 686.026 320.84C686.138 320.91 686.231 320.999 686.299 321.104C686.366 321.208 686.407 321.324 686.419 321.444C686.429 321.566 686.41 321.689 686.359 321.805C686.31 321.921 686.232 322.026 686.132 322.114C683.739 324.283 678.427 324.444 676.672 324.433C671.789 330.565 661.015 335.142 659.306 335.837C651.244 344.332 644.483 348.559 639.181 348.349C638.299 348.342 637.431 348.172 636.637 347.852C635.842 347.532 635.138 347.067 634.57 346.49C632.265 344.984 631.106 343.007 631.152 340.668C631.168 339.931 631.287 339.196 631.507 338.48C625.694 344.247 618.346 347.838 610.617 346.113C607.549 345.425 605.573 344.022 604.738 341.929C603.942 339.94 604.336 337.561 605.184 335.353C598.445 337.418 594.316 340.2 593.599 342.155C593.008 343.771 595.197 345.445 597.296 347.066C599.038 348.409 600.706 349.683 601.188 351.139C602.184 354.148 601.576 361.692 593.281 364.499C585.498 367.131 581.881 363.091 578.034 358.817L577.544 358.274C575.032 355.499 576.087 351.735 576.859 348.992C577.12 348.043 577.515 346.619 577.354 346.257L577.295 346.251C576.426 346.191 575.646 345.772 574.743 345.29C571.575 343.59 566.264 340.742 550.738 351.645C544.951 355.693 535.156 359.43 524.044 362.72C524.889 363.279 525.786 363.777 526.726 364.209C529.097 365.315 530.144 366.586 529.836 367.992C529.123 371.238 520.901 373.406 514.097 374.27C507.293 375.135 499.537 375.006 497.911 372.062C497.447 371.258 497.109 370.402 496.907 369.517C491.976 370.584 487.204 371.544 482.801 372.393C484.661 373.933 486.161 375.314 486.297 376.804C486.434 378.294 485.587 379.948 484.038 381.388C481.309 383.914 475.223 386.889 461.691 386.714C461.457 386.711 461.234 386.633 461.063 386.497C460.891 386.36 460.783 386.174 460.758 385.971C460.282 382.554 459.378 379.198 458.064 375.964C458.015 375.847 457.996 375.722 458.01 375.597C458.023 375.472 458.068 375.351 458.142 375.243C458.215 375.134 458.316 375.04 458.435 374.969C458.555 374.897 458.69 374.849 458.832 374.828C459.075 374.79 467.272 373.552 478.775 371.396C477.441 370.297 476.343 368.998 475.536 367.559C473.401 363.246 476.894 357.57 483.478 354.639C486.459 353.313 490.318 353.47 494.072 355.076C497.826 356.682 500.492 359.338 500.994 361.902C501.461 364.281 500.483 365.526 499.694 366.526C499.505 366.77 499.34 366.994 499.171 367.237C506.189 365.678 513.42 363.904 520.257 361.998C517.25 359.076 515.455 355.357 515.147 351.415C514.825 347.365 516.138 343.643 518.371 342.163C520.68 340.633 521.74 340.928 523.089 341.557C524.116 342.033 525.519 342.673 529.502 341.896C530.599 341.711 531.642 341.325 532.561 340.763C533.479 340.201 534.252 339.476 534.827 338.638C536.753 335.828 536.534 332.027 535.909 330.138C534.902 327.097 531.384 322.309 524.599 323.652C517.476 325.063 515.398 329.502 515.383 329.546C515.292 329.747 515.118 329.913 514.894 330.009C514.062 330.401 513.135 330.61 512.194 330.618C511.255 330.626 510.333 330.432 509.508 330.054C503.158 327.203 500.239 313.78 499.623 310.582C487.915 309.982 480.242 313.126 478.035 316.363C477.168 317.635 477.873 318.351 480.294 320.239C482.358 321.861 484.949 323.877 486.41 327.322C489.512 334.745 479.928 340.3 479.821 340.328C479.7 340.395 479.566 340.44 479.426 340.459C473.145 341.291 468.772 340.781 466.061 338.912C462.822 336.69 462.509 333.024 462.208 329.501C462.008 327.355 461.851 325.346 461.038 323.81C460.876 323.435 460.607 323.104 460.254 322.847C459.902 322.59 459.48 322.416 459.025 322.342C455.445 321.798 449.049 326.39 446.887 328.194C446.792 328.275 446.681 328.338 446.557 328.379C444.085 329.234 441.561 329.963 438.997 330.561C441.225 333.402 445.102 338.706 446.633 342.991C448.959 344.038 460.941 349.73 463.734 357.23C464.216 358.448 464.404 359.744 464.287 361.037C464.169 362.33 463.748 363.593 463.052 364.749C458.683 372.206 451.694 375.886 441.109 376.093C441.881 377.133 442.628 378.114 443.315 378.989C443.359 379.048 443.397 379.112 443.424 379.18C446.653 387.123 463.988 393.224 464.162 393.288C464.358 393.356 464.522 393.478 464.629 393.635C466.726 396.758 467.333 399.747 466.436 402.527C465.093 406.684 460.871 408.787 460.687 408.889L460.574 408.918C455.441 410.774 450.237 410.137 445.433 408.294C447.704 410.54 448.874 412.539 448.888 414.273C448.912 414.836 448.784 415.399 448.512 415.916C448.241 416.432 447.835 416.888 447.327 417.247C446.474 418.543 445.337 419.684 443.98 420.602C442.623 421.521 441.075 422.2 439.426 422.599L439.351 422.618C426.048 426.074 404.53 416.303 401.897 415.069C388.348 415.44 374.205 406.483 371.913 404.97C363.483 405.508 351.995 400.019 349.261 398.649C344.077 402.089 339.417 401.835 337.849 401.617C311.914 422.371 268.403 428.114 267.964 428.169C267.711 428.22 267.447 428.182 267.229 428.064C267.012 427.945 266.859 427.755 266.805 427.536C266.75 427.317 266.799 427.087 266.939 426.896C267.081 426.705 267.301 426.569 267.554 426.518C317.485 412.643 332.902 399.592 337.038 391.093C338.603 387.872 338.414 385.515 338.1 384.274C325.039 392.259 287.151 393.364 285.504 393.417C285.252 393.418 285.011 393.335 284.832 393.184C284.652 393.033 284.548 392.827 284.542 392.608C284.535 392.39 284.628 392.176 284.797 392.012C284.967 391.847 285.203 391.745 285.454 391.727C320.614 390.131 340.056 375.922 352.918 366.52C359.226 361.912 364.205 358.253 368.948 357.574C382.058 355.656 400.806 359.394 401.778 362.331C402.217 363.658 409.623 369.686 426.922 372.955C430.398 373.637 433.931 374.094 437.494 374.322C434.333 369.906 430.583 364.207 430.702 362.042C430.691 361.812 430.758 361.583 430.898 361.384C431.038 361.186 431.241 361.027 431.484 360.929C432.463 360.547 433.426 361.26 435.537 362.822C438.777 365.215 444.2 369.221 449.547 368.58C452.279 368.252 454.783 366.7 456.981 363.972C457.016 363.924 457.058 363.88 457.106 363.842C457.62 363.323 457.991 362.709 458.191 362.05C458.39 361.39 458.412 360.703 458.256 360.04C457.777 357.501 455.055 353.677 445.561 348.98C446.482 351.658 446.373 353.833 445.228 355.483C442.564 359.324 435.505 358.681 435.205 358.651C435.036 358.634 434.876 358.579 434.741 358.492C434.606 358.404 434.5 358.287 434.433 358.151C434.368 358.016 434.344 357.868 434.365 357.721C434.386 357.574 434.452 357.434 434.553 357.314C437.989 353.325 438.434 345.337 438.439 345.257C438.446 345.117 438.494 344.98 438.577 344.859C438.659 344.737 438.775 344.635 438.914 344.561C439.053 344.488 439.209 344.444 439.37 344.436C439.531 344.428 439.692 344.454 439.836 344.513C440.427 344.757 441.016 345.001 441.605 345.241C440.58 343.626 439.451 342.062 438.227 340.557C436.71 339.802 427.082 334.92 423.429 331.22C421.084 330.721 418.899 329.788 417.021 328.486C416.468 328.096 415.943 327.677 415.451 327.23C409.709 325.71 401.669 324.544 394.235 323.463L391.769 323.104C385.472 322.18 374.829 318.905 367.629 316.376C351.413 310.705 351.698 309.103 351.82 308.415C352.067 307.069 354.322 307.176 356.412 307.384C367.286 308.465 369.068 310.034 369.466 311.13C369.54 311.322 369.568 311.525 369.547 311.729C372.175 312.872 381.245 316.467 385.659 313.622C387.85 312.198 388.624 309.278 387.983 304.925C387.646 303.506 387.461 302.424 387.408 302.064C387.363 301.843 387.423 301.613 387.572 301.426C387.721 301.239 387.95 301.11 388.206 301.068C388.461 301.025 388.725 301.072 388.937 301.199C389.149 301.325 389.293 301.521 389.337 301.742C389.572 302.695 389.755 303.604 389.889 304.469C390.992 309.051 393.463 315.872 397.4 316.4C399.741 316.708 403.813 314.874 409.939 304.374C410.043 304.191 410.22 304.046 410.436 303.964C410.652 303.883 410.893 303.871 411.115 303.932C411.337 303.992 411.526 304.12 411.645 304.293C411.765 304.465 411.808 304.671 411.767 304.871C411.74 305.019 409.209 318.676 416.576 325.815C420.344 326.863 423.174 328.093 424.451 329.616L424.561 329.746C427.743 330.35 431.486 330.279 435.764 329.529C435.674 329.394 435.631 329.238 435.638 329.081C435.646 328.924 435.703 328.77 435.805 328.638C437.864 325.969 441.04 324.71 442.714 324.2C441.206 320.64 440.919 315.974 440.608 311.05C440.293 305.942 439.93 300.156 438.153 294.789C435.014 285.299 395.654 278.021 378.178 276.159C376.621 275.99 374.954 275.798 373.202 275.593C362.237 274.317 348.589 272.73 336.956 274.881C327.8 276.575 316.242 284.149 303.991 292.169C298.42 295.822 292.66 299.599 287.083 302.805C269.678 312.815 234.951 326.408 234.617 326.54C234.378 326.634 234.108 326.641 233.866 326.562C233.624 326.483 233.429 326.322 233.327 326.116C233.223 325.91 233.22 325.675 233.315 325.464C233.411 325.252 233.6 325.08 233.838 324.986C234.191 324.853 268.755 311.317 286.02 301.361C291.544 298.179 297.279 294.421 302.829 290.779C315.242 282.653 326.964 274.957 336.552 273.184C348.525 270.983 362.359 272.591 373.475 273.898C375.218 274.105 376.885 274.314 378.431 274.46C379 274.52 435.656 281.135 440.006 294.277C441.842 299.826 442.213 305.716 442.531 310.91C442.851 316.105 443.163 321.002 444.891 324.363C444.949 324.478 444.977 324.602 444.973 324.728C444.968 324.854 444.931 324.978 444.864 325.091C444.798 325.204 444.703 325.303 444.588 325.38C444.472 325.458 444.339 325.513 444.197 325.541C444.155 325.552 440.235 326.352 437.789 329.068C437.789 329.068 437.801 329.1 437.807 329.12C440.482 328.528 443.113 327.787 445.685 326.902C447.057 325.77 454.41 319.947 459.383 320.698C460.141 320.818 460.849 321.1 461.445 321.519C462.041 321.938 462.506 322.48 462.799 323.098C463.763 324.906 463.964 327.189 464.145 329.367C464.424 332.685 464.692 335.821 467.283 337.603C469.526 339.152 473.345 339.557 478.942 338.841C480.158 338.101 486.949 333.672 484.525 327.935C483.228 324.874 480.858 323.002 478.92 321.5C476.67 319.747 474.549 318.091 476.302 315.515C478.949 311.638 487.459 308.096 500.497 308.934C500.716 308.947 500.92 309.024 501.078 309.152C501.237 309.28 501.341 309.452 501.372 309.639C502.129 314.111 505.215 326.219 510.371 328.541C510.875 328.774 511.436 328.902 512.01 328.915C512.585 328.928 513.158 328.825 513.684 328.614C514.364 327.409 517.101 323.389 524.143 321.996C532.342 320.375 536.546 326.033 537.737 329.633C538.353 331.493 538.874 335.93 536.454 339.475C535.74 340.514 534.782 341.414 533.645 342.114C532.507 342.814 531.216 343.299 529.856 343.535C525.171 344.468 523.324 343.61 522.103 343.041C521.202 342.628 520.962 342.516 519.492 343.49C518.024 344.464 516.751 347.418 517.045 351.26C517.343 355.094 519.203 358.686 522.292 361.393C533.695 358.088 543.774 354.333 549.504 350.313C566.119 338.656 572.167 341.889 575.765 343.823C576.275 344.153 576.851 344.398 577.466 344.547C577.748 344.557 578.023 344.622 578.272 344.737C578.52 344.851 578.735 345.013 578.9 345.21C579.633 346.098 579.248 347.458 578.741 349.339C578.024 351.882 577.135 355.043 579.067 357.171L579.563 357.717C583.253 361.822 586.163 365.064 592.59 362.887C599.231 360.636 600.239 354.421 599.303 351.594C598.972 350.591 597.461 349.442 595.989 348.301C593.544 346.419 590.772 344.289 591.744 341.625C592.779 338.799 598.077 335.474 606.097 333.268C606.797 331.907 607.608 330.591 608.525 329.33C591.456 330.356 547.371 346.487 546.908 346.654C546.761 346.708 546.602 346.73 546.445 346.719C546.288 346.707 546.137 346.663 546.005 346.589C542.156 344.432 540.924 339.664 541.059 335.919C541.166 332.966 542.202 329.33 544.807 327.985C547.411 326.64 549.469 327.151 551.479 327.64C553.26 328.07 555.102 328.515 557.653 327.84C562.95 326.437 565.524 320.121 564.522 315.327C563.565 310.741 561.219 307.79 552.909 308.415C549.576 308.664 549.298 309.3 548.911 310.177C548.113 311.963 546.968 313.379 540.213 313.966C539 314.101 537.773 313.995 536.623 313.658C535.473 313.321 534.431 312.761 533.573 312.02C527.656 306.966 528.829 293.946 528.884 293.39C528.904 293.192 529.003 293.005 529.164 292.862C529.325 292.719 529.538 292.629 529.766 292.607C545.802 291.107 554.503 284.298 554.312 282.426C554.223 281.469 552.748 280.271 551.184 279.005C549.207 277.399 546.966 275.581 546.198 273.259C544.743 268.863 547.589 263.266 555.84 261.081C559.397 260.139 562.739 260.394 565.461 261.834C566.893 262.626 568.115 263.674 569.044 264.909C569.975 266.143 570.593 267.538 570.863 269.004C571.321 271.192 570.457 273.132 569.693 274.839C569.072 276.222 568.542 277.419 568.989 278.233C569.351 278.88 570.404 279.433 572.117 279.886C573.318 280.166 574.574 280.251 575.82 280.137C578.032 274.888 582.953 268.6 590.58 261.272C591.703 259.593 605.536 239.126 616.142 233.089C623.548 228.876 636.51 226.048 646.921 223.775C652.043 222.657 656.467 221.688 659.653 220.717C664.616 219.196 667.504 218.432 670.294 217.693C673.083 216.955 675.933 216.2 680.856 214.694C683.02 214.034 684.783 213.457 686.341 212.948C691.854 211.149 694.4 210.321 700.168 210.444C700.385 210.449 700.592 210.516 700.758 210.636C700.922 210.756 701.037 210.921 701.08 211.106C701.123 211.29 701.094 211.483 700.997 211.653C700.9 211.824 700.742 211.962 700.544 212.047C700.35 212.134 681.006 220.686 676.094 241.788C673.516 252.826 675.366 260.11 677.158 267.154C678.899 273.956 680.52 280.39 678.153 289.529C674.37 304.168 666.609 313.649 655.109 317.754C653.542 318.758 633.277 331.892 633.158 340.639C633.123 342.487 634.025 343.968 635.914 345.166C636.005 345.225 636.083 345.296 636.146 345.377C636.162 345.426 637.133 346.59 639.433 346.65C642.648 346.736 648.46 344.7 658.016 334.616C658.114 334.515 658.238 334.434 658.377 334.38C658.507 334.346 670.73 329.442 675.418 323.12C675.513 322.992 675.646 322.887 675.801 322.817C675.957 322.747 676.131 322.715 676.305 322.723C677.796 322.768 681.63 322.633 683.854 321.569C680.989 319.894 673.061 315.518 667.872 315.145C667.614 315.129 667.376 315.026 667.211 314.857C667.044 314.687 666.963 314.466 666.986 314.242C667.008 314.018 667.131 313.809 667.33 313.662C667.528 313.514 667.783 313.439 668.041 313.455C668.294 313.467 693.711 314.824 719.811 335.3L720.568 335.896C732.406 345.198 752.214 360.767 777.188 356.509C778.186 356.286 779.139 355.925 780.011 355.441C782.12 354.416 784.738 353.143 789.942 353.15C790.953 353.034 791.969 352.968 792.987 352.952C778.189 348.229 748.75 338.381 736.258 331.086C725.364 324.732 709.806 308.882 698.431 292.568C690.086 280.598 676.615 257.716 680.17 238.923C682.532 226.419 691.906 217.906 708.049 213.633C708.212 213.59 708.385 213.586 708.549 213.619C708.715 213.653 708.865 213.723 708.988 213.824C709.133 213.939 723.385 225.581 730.999 231.717C734.184 234.279 737.781 237.907 741.597 241.745C750.408 250.621 761.377 261.663 773.047 265.331C773.173 265.364 773.29 265.419 773.39 265.492C773.489 265.566 773.571 265.657 773.628 265.76C773.686 265.862 773.719 265.975 773.724 266.089C773.729 266.204 773.708 266.319 773.662 266.427C773.615 266.536 773.543 266.635 773.451 266.719C773.359 266.803 773.249 266.87 773.126 266.917C773.004 266.963 772.873 266.987 772.74 266.988C772.608 266.989 772.478 266.966 772.356 266.921C760.213 263.097 749.057 251.89 740.11 242.864C736.337 239.063 732.765 235.469 729.662 232.969C722.769 227.412 710.435 217.352 708.066 215.392C693.04 219.502 684.309 227.497 682.113 239.165C676.16 270.709 718.609 318.689 737.388 329.674C753.858 339.291 801.922 353.943 802.434 354.089C802.626 354.148 802.79 354.258 802.904 354.404C803.018 354.55 803.075 354.725 803.068 354.903C803.06 355.081 802.987 355.253 802.861 355.395C802.735 355.538 802.562 355.642 802.366 355.695L802.254 355.712ZM348.896 396.792C349.027 396.757 349.165 396.746 349.3 396.76C349.436 396.774 349.565 396.813 349.682 396.874C349.818 396.948 363.316 404.003 372.113 403.254C372.363 403.231 372.611 403.293 372.807 403.426C372.959 403.531 388.248 413.878 402.094 413.371C402.272 413.367 402.447 413.403 402.602 413.475C402.832 413.585 425.7 424.407 438.801 421L438.875 420.98C440.318 420.635 441.671 420.039 442.851 419.229C444.03 418.418 445.011 417.409 445.734 416.265C445.822 416.127 445.951 416.012 446.108 415.933C446.398 415.736 446.628 415.477 446.773 415.183C446.917 414.889 446.974 414.569 446.937 414.253C446.867 411.997 443.455 405.272 413.586 391.614C412.542 391.275 398.239 386.54 389.077 381.034C381.452 376.453 372.467 372.911 368.625 371.394C367.665 371.014 367.034 370.768 366.725 370.621C365.571 370.086 365.662 368.408 365.721 367.909C365.871 366.549 366.658 364.897 368.42 364.374C370.663 363.71 373.564 365.062 377.06 368.413C378.089 368.967 386.586 373.418 393.99 373.424C394.245 373.424 394.486 373.51 394.665 373.664C394.83 373.809 411.499 388.185 425.093 390.407C425.342 390.443 425.565 390.562 425.712 390.74C425.893 390.965 443.797 413.087 459.817 407.368C460.253 407.147 463.544 405.325 464.588 402.066C465.311 399.82 464.817 397.356 463.124 394.733C460.639 393.838 445.043 387.932 441.652 379.855C441.239 379.331 440.136 377.907 438.784 376.066C434.644 375.906 430.536 375.425 426.508 374.626C409.707 371.45 400.832 365.335 399.954 362.88C398.904 361.46 383.031 357.242 369.273 359.261C365.068 359.877 360.274 363.403 354.194 367.824C344.711 374.733 331.731 384.24 311.653 389.556L311.227 389.669C321.877 388.274 332.915 385.986 338.014 382.26C338.126 382.178 338.258 382.118 338.4 382.085C338.541 382.052 338.69 382.047 338.832 382.07C338.972 382.098 339.103 382.151 339.216 382.227C339.328 382.302 339.42 382.398 339.486 382.509C339.569 382.654 341.574 386.144 338.848 391.749C335.053 399.541 322.341 410.962 284.611 423.207C299.633 419.591 321.524 412.555 336.871 400.081C336.995 399.982 337.144 399.911 337.306 399.876C337.468 399.841 337.637 399.842 337.797 399.88C338 399.923 342.911 400.967 348.542 396.969C348.644 396.888 348.765 396.828 348.896 396.792ZM367.748 369.158C368.057 369.292 368.678 369.537 369.444 369.839C373.332 371.375 382.439 374.974 390.19 379.63C399.465 385.199 414.19 389.994 414.337 390.039L414.448 390.08C420.124 392.683 425.115 395.145 429.419 397.466C427.595 395.724 425.886 393.892 424.301 391.981C411.032 389.62 395.843 377.052 393.538 375.088C385.233 374.925 376.263 369.983 375.879 369.764C375.808 369.724 375.742 369.676 375.684 369.622C372.521 366.57 369.872 365.27 368.603 366.142C367.571 366.869 367.507 368.707 367.757 369.156L367.748 369.158ZM462.555 385.016C475.437 385.055 480.633 382.052 482.595 380.23C483.974 378.95 484.395 377.699 484.322 376.957C484.228 375.918 482.428 374.449 480.694 373.026L480.444 372.819C470.716 374.651 463.124 375.86 460.247 376.305C461.324 379.136 462.099 382.051 462.564 385.014L462.555 385.016ZM498.762 369.092C498.928 369.86 499.224 370.602 499.638 371.293C500.564 372.97 506.526 373.512 513.81 372.587C522.083 371.531 527.565 369.222 527.902 367.686C528.078 366.896 526.638 366.098 525.766 365.691C524.35 365.037 523.025 364.248 521.815 363.336C514.366 365.471 506.419 367.403 498.771 369.089L498.762 369.092ZM607.502 334.668C606.46 336.902 605.788 339.381 606.565 341.326C607.191 342.881 608.68 343.903 611.121 344.453C622.669 347.045 633.525 336.072 638.717 324.781C638.792 324.618 638.925 324.479 639.096 324.386C639.172 324.34 646.591 319.763 651.515 314.139C648.677 313.254 641.05 311.247 634.782 312.907C632.855 313.502 630.961 314.181 629.108 314.941C625.81 316.219 621.593 317.845 616.945 319.239C617.96 326.352 618.23 331.446 618.262 332.035C618.279 332.258 618.195 332.479 618.026 332.65C617.858 332.822 617.62 332.93 617.363 332.951C614.038 333.278 610.746 333.856 607.525 334.676L607.502 334.668ZM481.021 370.951C485.899 370.02 491.289 368.936 496.854 367.727C497.073 366.947 497.482 366.215 498.052 365.58C498.771 364.676 499.368 363.911 499.031 362.201C498.638 360.181 496.271 357.921 493.142 356.589C490.015 355.258 486.683 355.066 484.297 356.129C478.728 358.606 475.586 363.419 477.283 366.855C478.009 368.277 479.517 369.668 481.04 370.946L481.021 370.951ZM640.411 325.622C640.111 326.255 639.81 326.885 639.469 327.516C643.927 323.421 648.795 319.677 654.012 316.333C654.077 316.29 654.148 316.255 654.222 316.229C665.162 312.369 672.532 303.278 676.183 289.188C678.457 280.417 676.867 274.168 675.186 267.548C673.354 260.335 671.455 252.875 674.113 241.481C676.858 229.608 684.897 219.08 696.462 212.213C693.299 212.456 691.015 213.215 686.927 214.535C685.361 215.046 683.582 215.623 681.4 216.292C676.436 217.809 673.552 218.573 670.758 219.312C667.964 220.052 665.141 220.799 660.201 222.314C656.965 223.303 652.484 224.282 647.314 225.409C637.045 227.652 624.27 230.44 617.142 234.496C606.725 240.426 592.339 261.946 592.186 262.189C592.151 262.242 592.109 262.292 592.061 262.336C584.192 269.888 580.024 275.598 578.016 279.886C586.385 278.454 597.178 272.644 597.313 272.577C597.504 272.472 597.729 272.426 597.951 272.447C598.174 272.468 598.379 272.556 598.533 272.695C601.284 275.336 603.603 278.296 605.426 281.494C606.562 279.92 607.477 278.235 608.148 276.475C608.193 276.339 608.276 276.213 608.392 276.11C608.506 276.008 608.647 275.931 608.803 275.888C608.96 275.848 609.123 275.841 609.282 275.867C609.44 275.893 609.588 275.952 609.713 276.039C610.174 276.385 610.575 276.787 610.903 277.233C611.02 277.408 611.169 277.565 611.346 277.696C612.481 277.836 618.437 273.773 621.299 271.823C628.462 266.936 628.514 261.555 627.357 257.981C627.181 257.649 627.005 257.3 626.819 256.927C626.368 256.008 625.86 254.981 625.135 253.818C625.021 253.631 624.994 253.413 625.058 253.206C625.121 253 625.272 252.821 625.479 252.704C625.687 252.587 625.936 252.542 626.177 252.578C626.417 252.613 626.633 252.726 626.779 252.895C627.737 254.163 628.484 255.545 628.993 257.002C630.612 260.172 631.916 261.129 642.656 259.157C647.343 258.294 650.53 256.633 652.109 254.173C652.387 253.74 652.616 253.284 652.793 252.813C652.417 250.831 652.382 248.807 652.688 246.805C652.715 246.615 652.813 246.438 652.968 246.301C653.125 246.164 653.328 246.076 653.546 246.05C653.763 246.025 653.983 246.065 654.17 246.162C654.355 246.26 654.498 246.41 654.571 246.588C655.332 248.616 655.409 250.8 654.793 252.886C656.217 259.13 661.534 262.412 665.337 264.753C668.371 266.629 670.993 268.245 669.203 270.465C665.828 274.649 659.45 276.927 648.881 279.66C642.692 281.263 637.246 281.42 631.466 281.578C628.183 281.672 624.785 281.771 621.125 282.142C616.004 282.666 612.308 283.447 607.593 285.518C612.577 295.751 615.275 308.12 616.711 317.537C621.127 316.187 625.157 314.632 628.363 313.396C630.293 312.602 632.268 311.896 634.279 311.28C642.793 309.026 653.043 312.788 653.477 312.946C653.61 312.994 653.728 313.066 653.824 313.159C653.919 313.252 653.989 313.362 654.029 313.482C654.068 313.602 654.077 313.729 654.053 313.853C654.03 313.977 653.975 314.096 653.892 314.2C649.174 319.985 641.877 324.701 640.429 325.617L640.411 325.622ZM608.611 332.65C611.133 332.072 613.691 331.636 616.272 331.344C616.16 329.649 615.824 325.374 614.998 319.803C601.804 323.463 585.742 324.737 576.882 311.192C576.859 311.143 576.841 311.091 576.832 311.038C576.488 309.926 576.422 308.758 576.636 307.612C576.851 306.466 577.342 305.368 578.078 304.391C579.088 303.059 580.42 301.931 581.979 301.088C583.177 298.664 585.42 296.104 589.307 293.715L589.557 293.561C586.544 294.13 583.459 294.314 580.402 294.106C580.319 294.102 580.237 294.088 580.159 294.065C578.82 293.59 577.636 292.843 576.704 291.886C575.772 290.928 575.12 289.789 574.799 288.56C574.239 286.59 574.365 284.357 575.178 281.86C573.943 281.918 572.707 281.799 571.523 281.508C569.205 280.903 567.842 280.103 567.229 278.989C566.416 277.519 567.125 275.937 567.877 274.256C568.578 272.684 569.302 271.058 568.943 269.341C568.721 268.107 568.206 266.932 567.43 265.89C566.653 264.848 565.631 263.963 564.431 263.29C562.171 262.106 559.39 261.901 556.371 262.7C549.351 264.559 546.877 269.173 548.065 272.765C548.688 274.646 550.727 276.301 552.518 277.745C554.438 279.3 556.093 280.644 556.24 282.241C556.541 285.443 546.873 292.482 530.763 294.191C530.609 296.928 530.385 306.894 534.942 310.787C535.601 311.364 536.407 311.799 537.298 312.057C538.188 312.316 539.14 312.392 540.077 312.278C546.155 311.752 546.641 310.655 547.115 309.592C547.75 308.161 548.576 307.041 552.785 306.732C561.02 306.113 565.106 308.586 566.443 314.994C567.615 320.614 564.562 327.77 558.193 329.457C555.09 330.278 552.782 329.719 550.923 329.27C549.064 328.82 547.636 328.473 545.78 329.434C544.229 330.237 543.113 332.85 543.006 335.941C542.9 338.943 543.816 343.003 546.678 344.915C552.102 342.938 595.193 327.422 610.407 327.604C610.585 327.606 610.757 327.65 610.907 327.732C611.055 327.813 611.175 327.929 611.253 328.066C611.33 328.204 611.363 328.358 611.346 328.512C611.33 328.666 611.266 328.814 611.16 328.94C610.211 330.124 609.359 331.364 608.611 332.65ZM439.901 374.411C450.455 374.525 457.128 371.17 461.349 364.017C461.922 363.059 462.269 362.013 462.365 360.943C462.46 359.873 462.304 358.802 461.905 357.794C459.123 350.308 445.533 344.421 445.397 344.365C445.278 344.314 445.175 344.242 445.089 344.154C445.005 344.066 444.944 343.963 444.906 343.852C443.466 339.496 439.086 333.665 436.971 330.995C433.632 331.687 430.197 331.931 426.791 331.72C431.32 335.175 439.326 339.14 439.441 339.18C439.562 339.241 439.666 339.325 439.745 339.425C441.606 341.653 443.215 344.033 444.552 346.533C454.17 350.986 459.455 355.438 460.233 359.803C460.423 360.712 460.373 361.651 460.085 362.548C459.798 363.446 459.28 364.279 458.573 364.985C456.038 368.093 453.107 369.863 449.822 370.258C443.629 371.017 437.79 366.694 434.306 364.119C433.836 363.773 433.336 363.404 432.913 363.107C433.71 365.487 436.823 370.188 439.882 374.416L439.901 374.411ZM578.652 310.402C583.74 318.087 591.64 321.363 602.832 320.402C606.881 320.004 610.879 319.232 614.755 318.099C613.327 308.772 610.64 296.435 605.797 286.323C601.87 288.207 597.15 290.957 590.373 295.091C588.268 296.336 586.441 297.909 584.99 299.728C588.155 298.639 591.467 297.927 594.838 297.614C594.971 297.6 595.106 297.61 595.233 297.643C595.361 297.675 595.48 297.73 595.583 297.804C595.683 297.879 595.765 297.971 595.823 298.076C595.88 298.18 595.912 298.294 595.915 298.411C595.921 298.519 596.404 309.332 601.615 312.048C603.284 312.926 603.976 313.878 603.676 314.895C602.73 318.066 591.493 318.732 591.013 318.757C587.649 318.948 583.309 315.258 581.543 310.706C580.699 308.541 580.499 306.216 580.959 303.945C580.478 304.359 580.048 304.818 579.681 305.313C579.121 306.065 578.739 306.905 578.56 307.783C578.381 308.661 578.407 309.558 578.638 310.42L578.652 310.402ZM583.493 302.249C582.417 304.795 582.389 307.569 583.413 310.097C585.119 314.484 589.022 317.142 590.951 317.032C596.488 316.723 601.556 315.359 601.809 314.465C601.832 314.397 601.667 314.036 600.607 313.464C595.444 310.77 594.29 302.22 594.042 299.364C589.644 299.948 586.078 300.923 583.478 302.266L583.493 302.249ZM437.096 357.015C439.048 356.974 442.243 356.585 443.596 354.63C444.415 353.441 444.741 351.366 443.023 347.774C442.165 347.381 441.237 346.993 440.298 346.586C440.041 348.853 439.283 353.594 437.082 357.032L437.096 357.015ZM612.939 281.815C615.551 281.151 618.223 280.695 620.923 280.453C624.665 280.07 628.099 279.974 631.42 279.874C637.064 279.7 642.4 279.563 648.348 278.032C658.49 275.409 664.586 273.267 667.601 269.503C668.182 268.782 667.304 268.065 664.175 266.134C660.748 264.02 655.699 260.9 653.534 255.358C651.588 258.046 648.058 259.887 643.023 260.802C635.375 262.211 631.876 262.191 629.784 260.884C629.96 264.586 628.462 269.056 622.477 273.139C614.428 278.627 612.486 279.541 611.037 279.362C610.696 279.305 610.374 279.185 610.092 279.01C609.811 278.835 609.578 278.608 609.408 278.346C608.596 280.055 607.591 281.693 606.41 283.235C606.545 283.493 606.681 283.75 606.818 284.007C608.779 283.128 610.821 282.4 612.924 281.832L612.939 281.815ZM580.707 292.415C593.064 293.103 600.261 287.806 604.155 283.128C602.442 279.95 600.249 276.991 597.633 274.327C594.924 275.74 585.112 280.625 577.266 281.646C576.254 284.448 576.246 286.535 576.672 288.068C576.904 289.022 577.387 289.912 578.085 290.669C578.781 291.427 579.675 292.03 580.692 292.432L580.707 292.415ZM354.367 308.955C358.612 311.724 381.272 319.869 392.126 321.461L394.592 321.82C401.218 322.784 407.961 323.762 413.416 325.002C409.608 319.881 409.189 313.077 409.399 308.758C404.92 315.496 400.845 318.563 397.076 318.052C393.616 317.595 391.29 314.164 389.785 310.585C389.303 312.514 388.307 313.968 386.795 314.949C386.084 315.407 385.286 315.752 384.44 315.969C377.944 317.688 368.313 313.103 367.852 312.881C367.72 312.817 367.607 312.726 367.524 312.615C367.44 312.505 367.389 312.379 367.372 312.247C367.358 312.136 367.37 312.024 367.405 311.916C367.441 311.809 367.502 311.708 367.582 311.62C367.384 311.36 365.91 310.026 356.157 309.061C355.563 308.999 354.966 308.963 354.367 308.955Z" fill="#342D2E"/>
<path d="M236.527 324.784C209.09 335.861 104.988 354.949 1.75 300.949" stroke="#342D2E" stroke-width="2.1" stroke-linecap="round"/>
<path d="M772.145 266C803.811 309.26 851.38 344.146 939.424 337.088C1069.62 326.653 1088.71 299.268 1122.61 266" stroke="#342D2E" stroke-width="2.1" stroke-linecap="round"/>
</svg>
