<svg width="602" height="404" viewBox="0 0 602 404" fill="none" xmlns="http://www.w3.org/2000/svg">
<g clip-path="url(#clip0_2136_380)">
<path d="M350.723 26.5487C340.277 37.1213 341.348 56.03 343.19 64.1628C344.194 57.0466 348.212 41.1876 356.247 34.6814C364.283 28.1752 385.041 24.5154 394.416 23.4988C393.579 24.0071 391.804 25.4304 391.403 27.057C390.9 29.0902 391.905 33.1565 396.425 40.2727C400.945 47.3889 423.042 73.8204 428.567 75.3453C434.091 76.8702 442.629 67.2125 446.144 71.7872C449.66 76.3619 450.162 87.5444 449.157 92.1191C448.153 96.6938 447.651 100.252 442.629 105.843C438.611 110.316 434.928 109.063 433.589 107.876C433.589 111.096 434.191 121.397 436.602 136.849C439.615 156.165 446.646 167.347 454.682 173.447C462.717 179.547 478.286 188.696 484.313 188.696C490.339 188.696 488.833 188.696 488.833 183.105C488.833 177.513 471.255 117.534 469.748 105.843C468.242 94.1523 459.202 41.7976 449.157 27.057C439.113 12.3163 431.078 6.21671 411.491 6.72501C391.905 7.23331 363.781 13.3329 350.723 26.5487Z" fill="#BC7868"/>
<path d="M274.779 237.847C272.048 241.405 267.788 247.895 266 250.696C267.626 249.872 271.658 247.632 274.779 245.26C278.681 242.294 283.071 239.823 286.973 239.329C290.094 238.934 297.053 230.598 300.142 226.48C311.035 216.925 333.796 197.52 337.698 196.333C342.575 194.851 345.99 195.839 351.843 191.391C357.695 186.944 356.232 178.542 354.281 169.647C352.33 160.751 339.161 161.739 330.87 165.199C324.236 167.966 321.603 178.872 321.115 183.978L292.338 213.631C287.623 220.22 277.511 234.288 274.779 237.847Z" fill="#BACDD1"/>
<path d="M41.6909 396.971C28.5021 386.555 15.3133 376.138 8.41975 368.019C1.52619 359.9 0.919341 354.081 3.17458 350.403C5.42982 346.725 10.5182 345.196 42.7375 341.833C74.9569 338.471 134.618 333.249 164.66 330.261C194.703 327.273 195.31 326.508 196.133 323.828C196.956 321.149 198.008 316.551 201.978 307.897C205.948 299.243 212.843 286.528 223.334 276.111C233.824 265.694 247.913 257.577 257.955 252.591C267.997 247.604 273.991 245.773 278.112 243.935C282.234 242.097 284.483 240.259 286.356 238.957C288.229 237.656 289.728 236.889 290.618 236.199C291.507 235.509 291.811 234.898 293.314 235.358C294.818 235.818 297.513 237.349 298.336 239.571C299.16 241.792 298.111 244.702 296.838 246.31C295.564 247.918 294.066 248.226 293.088 247.688C292.109 247.15 291.664 245.771 291.514 244.702C291.364 243.632 291.514 242.864 290.832 241.566C290.151 240.268 288.659 238.43 288.884 236.74C289.109 235.05 291.057 233.523 292.856 232.222C294.654 230.92 296.303 229.847 296.903 228.699C297.503 227.551 297.053 226.324 297.651 224.793C298.249 223.261 299.899 221.421 300.424 219.202C300.949 216.982 300.349 214.376 298.626 212.768C296.903 211.16 294.054 210.546 291.882 210.24C289.711 209.933 288.211 209.933 285.887 212.844C283.564 215.756 280.417 221.575 277.269 226.094C274.12 230.614 270.975 233.83 267.977 236.896C264.978 239.963 262.133 242.871 261.158 244.785C260.183 246.7 261.083 247.62 262.881 246.853C264.68 246.087 267.378 243.635 269.327 242.257C271.275 240.879 272.473 240.572 274.347 240.038C276.22 239.503 278.769 238.734 281.765 236.513C284.762 234.292 288.226 230.617 292.658 226.488C297.09 222.359 302.475 217.756 309.294 212.011C316.112 206.267 324.356 199.375 329.153 195.699C333.95 192.022 335.289 191.562 336.496 191.333C337.703 191.103 338.745 191.103 340.246 191.256C341.748 191.409 343.695 191.716 346.317 189.801C348.938 187.886 352.237 183.75 353.362 179.079C354.487 174.408 353.435 169.199 351.787 165.446C350.139 161.693 347.89 159.395 344.143 158.324C340.396 157.252 335.151 157.404 331.254 158.552C327.358 159.7 324.811 161.846 323.013 165.063C321.214 168.279 320.164 172.568 319.041 175.555C317.917 178.541 316.717 180.227 314.056 183.369C311.395 186.51 307.275 191.103 303.147 195.622C299.018 200.141 294.903 204.582 292.578 206.536C290.253 208.489 289.731 207.954 289.881 206.804C290.031 205.654 290.855 203.892 292.578 201.596C294.301 199.3 296.925 196.463 298.611 195.162C300.297 193.861 301.047 194.091 301.607 194.702C302.168 195.314 302.545 196.31 304.418 195.124C306.292 193.937 309.664 190.566 312.43 187.733C315.197 184.9 317.374 182.602 317.825 180.649C318.277 178.696 317 177.088 316.7 174.636C316.4 172.185 317.075 168.887 318.761 164.221C320.447 159.555 323.146 153.497 326.817 146.26C330.489 139.023 335.134 130.597 338.283 121.943C341.431 113.289 343.078 104.404 344.126 96.0548C345.175 87.7059 345.626 79.8953 346.15 74.5326C346.673 69.1699 347.275 66.2621 347.343 61.9726C347.411 57.6831 346.968 52.0156 347.043 45.7364C347.118 39.4573 347.725 32.5631 352.213 25.8223C356.701 19.0815 365.102 12.4957 375.737 8.20797C386.372 3.92025 399.261 1.93581 410.283 1.2389C421.305 0.541998 430.441 1.16223 438.908 5.91166C447.375 10.6611 455.17 19.5449 460.865 35.7044C466.56 51.864 470.157 75.301 473.754 94.7551C477.351 114.209 480.947 129.681 484.323 142.471C487.698 155.261 490.841 165.371 492.334 171.566C493.828 177.762 493.683 180.069 491.141 180.452C488.6 180.835 483.641 179.304 479.751 177.694C475.861 176.084 473.007 174.401 468.137 171.422C463.267 168.443 456.375 164.146 451.943 158.325C447.511 152.504 445.574 145.15 443.776 137.34C441.978 129.529 440.329 121.255 439.279 115.051C438.229 108.847 437.781 104.712 437.556 97.818C437.331 90.9239 437.331 81.2665 438.904 74.841C440.478 68.4155 443.626 65.1906 446.248 64.5024C448.869 63.8142 450.97 65.6505 452.318 69.6334C453.666 73.6162 454.266 79.7385 453.511 85.1814C452.756 90.6242 450.663 95.3667 448.339 98.1247C446.016 100.883 443.469 101.648 441.146 101.341C438.822 101.034 436.726 99.6579 434.177 102.797C431.629 105.937 428.632 113.599 422.037 120.948C415.442 128.297 405.253 135.348 396.859 139.101C388.466 142.854 381.872 143.312 375.802 141.246C369.732 139.179 364.188 134.582 360.141 128.147C356.094 121.713 353.546 113.443 351.598 107.545C349.649 101.648 348.301 98.1247 348.529 93.8352C348.758 89.5457 350.553 84.4914 350.253 80.0504C349.953 75.6093 347.554 71.7781 347.031 68.3319C346.508 64.8857 347.854 61.821 349.204 55.7719C350.554 49.7227 351.901 40.6821 355.125 34.8647C358.348 29.0472 363.441 26.4408 368.762 24.5261C374.082 22.6113 379.629 21.39 388.544 19.93C397.459 18.4699 409.751 16.7939 416.5 15.1056C423.249 13.4173 424.442 11.7343 420.099 12.2709C415.755 12.8076 405.858 15.5656 400.538 18.0919C395.218 20.6181 394.468 22.9179 398.516 29.7354C402.565 36.5529 411.403 47.8864 417.779 55.3154C424.154 62.7444 428.044 66.2673 431.117 67.7988C434.191 69.3302 436.438 68.872 439.284 67.3405C442.131 65.8091 445.58 63.2027 448.201 63.0511C450.823 62.8995 452.623 65.1958 453.671 71.4749C454.72 77.7541 455.022 88.0265 453.671 95.2186C452.321 102.411 449.325 106.554 449.7 114.443C450.075 122.332 453.82 133.972 458.992 144.312C464.164 154.653 470.754 163.69 474.277 169.815C477.801 175.941 478.249 179.159 475.252 184.062C472.255 188.965 465.81 195.551 457.343 198.613C448.876 201.676 438.384 201.227 431.191 199.917C423.997 198.606 420.1 196.47 414.928 196.781C409.757 197.091 403.315 199.845 398.368 200.227C393.421 200.608 389.993 198.612 385.05 197.378C380.106 196.145 373.661 195.693 372.911 194.315C372.161 192.937 377.108 190.637 379.954 186.649C382.801 182.661 383.551 176.999 383.326 169.875C383.101 162.751 381.903 154.175 381.153 152.642C380.403 151.109 380.104 156.625 380.554 163.519C381.004 170.413 382.203 178.677 380.554 183.738C378.906 188.799 374.418 190.63 371.562 192.852C368.707 195.073 367.516 197.678 366.092 199.056C364.669 200.434 363.024 200.587 359.872 204.572C356.72 208.557 352.078 216.365 346.983 223.105C341.888 229.844 336.343 235.513 330.278 238.576C324.213 241.639 317.614 242.099 318.139 240.414C318.664 238.729 326.306 234.9 331.094 230.534C335.883 226.167 337.838 221.266 336.489 217.437C335.141 213.607 330.494 210.851 326.603 210.468C322.711 210.085 319.559 212.076 321.432 211.156C323.306 210.236 330.199 206.408 331.249 204.724C332.299 203.039 327.499 203.504 323.606 205.567C319.712 207.63 316.711 211.316 314.314 213.755C311.917 216.195 310.117 217.432 309.292 220.113C308.467 222.794 308.61 226.929 308.917 229.763C309.224 232.598 309.667 234.13 309.667 235.584C309.667 237.039 309.217 238.417 306.893 241.022C304.57 243.627 300.375 247.454 296.253 249.371C292.131 251.287 288.086 251.287 281.341 253.354C274.596 255.42 265.147 259.556 255.863 264.841C246.58 270.125 237.429 276.559 228.589 284.985C219.749 293.41 211.202 303.826 206.333 311.025C201.465 318.224 200.263 322.206 201.39 324.504C202.517 326.803 205.962 327.416 215.402 326.956C224.842 326.496 240.29 324.964 269.057 322.743C297.825 320.522 339.946 317.612 362.202 317.152C384.458 316.692 386.855 318.684 402.742 332.547C418.629 346.41 448.004 372.143 462.391 386.236C476.778 400.33 476.178 402.788 472.731 402.091C469.284 401.394 462.991 397.573 446.128 384.475C429.266 371.377 401.842 349.015 361.077 340.047C320.312 331.08 266.211 335.528 206.71 340.661C147.21 345.793 82.3176 351.612 50.0215 355.296C17.7254 358.979 18.0237 360.503 49.6533 358.358C81.2828 356.214 144.215 350.393 186.778 347.177C229.341 343.96 251.522 343.344 263.512 339.978C275.503 336.611 277.299 330.48 280.746 315.934C284.193 301.388 289.29 278.404 292.061 266.151C294.833 253.897 295.285 252.364 297.982 250.679C300.678 248.995 305.625 247.157 309.147 243.557C312.669 239.957 314.772 234.595 314.992 235.973C315.212 237.351 313.569 245.47 313.799 258.952C314.029 272.433 316.121 291.271 317.171 301.304C318.221 311.338 318.219 312.563 321.593 313.406C324.966 314.249 331.708 314.708 344.972 314.02C358.235 313.331 378.018 311.491 384.313 295.867C390.608 280.242 383.413 250.833 378.993 233.063C374.573 215.294 372.923 209.168 372.473 211.541C372.023 213.914 372.773 224.791 376.223 239.574C379.673 254.357 385.815 273.043 390.012 280.855C394.209 288.668 396.455 285.603 407.021 271.897C417.586 258.19 436.472 233.83 450.559 217.055C464.646 200.281 473.94 191.096 482.032 187.416C490.123 183.736 497.019 185.578 506.011 190.404C515.003 195.23 526.095 203.041 530.365 209.245C534.635 215.449 532.088 220.047 526.993 228.392C521.898 236.738 514.254 248.841 508.559 260.33C502.864 271.818 499.117 282.694 496.644 296.097C494.17 309.5 492.953 325.435 493.026 341.826C493.1 358.217 494.452 375.065 494.902 384.486C495.352 393.906 494.902 395.897 494.003 393.983C493.105 392.068 491.76 386.254 492.578 368.326C493.396 350.398 496.4 320.381 503.669 293.881C510.937 267.381 522.478 244.4 529.068 231.384C535.658 218.367 537.311 215.299 538.585 214.688C539.858 214.076 540.758 215.907 543.305 224.261C545.851 232.616 550.05 247.468 551.998 264.088C553.947 280.707 553.647 299.088 554.395 316.781C555.143 334.474 556.944 351.477 558.742 361.357C560.54 371.237 562.339 373.994 558.292 374.377C554.245 374.76 544.355 372.769 534.838 371.926C525.321 371.082 516.179 371.389 511.314 371.229C506.449 371.068 505.842 370.462 511.389 370.462C516.936 370.462 528.623 371.075 536.788 371.917C544.953 372.758 549.602 373.833 551.618 375.976C553.635 378.119 553.042 381.337 552.068 385.473C551.095 389.61 549.745 394.664 548.022 397.192C546.298 399.72 544.2 399.72 545.625 399.567C547.05 399.413 551.993 399.107 561.809 399.107C571.624 399.107 586.313 399.413 601 399.72" stroke="#716566" stroke-width="2" stroke-miterlimit="39.01"/>
</g>
<defs>
<clipPath id="clip0_2136_380">
<rect width="602" height="404" fill="white"/>
</clipPath>
</defs>
</svg>
